<svg width="155" height="38" viewBox="0 0 155 38" fill="none" xmlns="http://www.w3.org/2000/svg">
<g clip-path="url(#clip0_2012_122)">
<path d="M14.889 20.1133H9.6381L12.4348 11.0228L14.889 20.1133ZM6.91454 30.1314L8.70717 24.1451H15.7815L17.4587 30.116H23.9984L17.501 7.3513C17.1164 6.00611 16.3085 5.38525 14.889 5.38525H5.61431V7.53526H6.38367C7.35308 7.53526 7.87625 7.9185 7.87625 8.6505C7.87625 9.13722 7.76854 9.54346 7.38385 10.651L0.875 30.1314H6.91454Z" fill="#999999"/>
<path d="M31.5641 30.1314V7.28231C31.5641 6.09042 30.864 5.38525 29.7061 5.38525H23.9551V7.53526H24.3398C25.3053 7.53526 25.7169 7.94533 25.7169 8.91877V30.1314H31.5641Z" fill="#999999"/>
<path d="M41.5058 30.1314V7.28231C41.5058 6.09042 40.7941 5.38525 39.6439 5.38525H33.9121V7.53526H34.2968C35.2662 7.53526 35.6778 7.94533 35.6778 8.91877V30.1314H41.5058Z" fill="#999999"/>
<path d="M51.7024 7.64267C51.7024 5.98322 50.4675 4.95996 48.3518 4.95996C46.236 4.95996 44.9935 5.96406 44.9935 7.64267C44.9935 9.32128 46.2668 10.3254 48.3518 10.3254C50.4368 10.3254 51.7024 9.32895 51.7024 7.64267ZM51.5908 30.1315V13.4757C51.5908 12.2876 50.883 11.5863 49.7251 11.5863H44.0664V13.6941H44.4011C45.3666 13.6941 45.7783 14.1387 45.7783 15.1044V30.1315H51.5908Z" fill="#999999"/>
<path d="M64.3943 21.2247V24.8311C63.421 25.8313 62.2362 26.4445 61.2322 26.4445C60.2282 26.4445 59.8166 25.931 59.8166 24.5283C59.8166 23.1256 60.1089 22.5316 61.1553 22.1292C62.1971 21.7066 63.2838 21.4032 64.3943 21.2247M56.5314 16.8941C58.3183 16.0109 60.2735 15.517 62.267 15.4454C63.8365 15.4454 64.3943 16.0011 64.3943 17.6222V18.0361C62.0131 18.4194 61.2668 18.565 59.9243 18.8601C59.1723 19.0251 58.4361 19.2547 57.7239 19.5461C55.3735 20.4851 54.2617 22.294 54.2617 25.0725C54.2617 28.5984 55.8005 30.3 58.951 30.3C60.0227 30.3044 61.0854 30.1054 62.0823 29.7136C62.9866 29.3036 63.8273 28.7667 64.5789 28.1193V28.3799C64.5789 29.5297 65.1714 30.116 66.3293 30.116H71.6571V28.1346H71.3955C70.3915 28.1346 70.0222 27.6862 70.0222 26.502V17.6682C70.0222 12.9582 68.3796 11.3179 63.6442 11.3179C62.1429 11.3253 60.6473 11.5015 59.1857 11.8429C57.8047 12.1497 56.4746 12.6504 55.235 13.3299L56.5314 16.8941Z" fill="#999999"/>
<path d="M80.1397 30.1313V17.5915C81.1129 16.5146 82.1131 16.0279 83.2671 16.0279C84.502 16.0279 84.8059 16.5146 84.8059 18.381V30.1313H90.6146V17.5225C90.6146 14.5869 90.403 13.6594 89.4605 12.663C88.6912 11.8007 87.4871 11.3638 85.9522 11.3638C83.6787 11.3638 82.0785 12.0651 79.9281 14.0695V13.3298C79.9281 12.1801 79.3241 11.5861 78.1354 11.5861H72.6152V13.6939H72.9499C73.9155 13.6939 74.3309 14.1385 74.3309 15.1042V30.1313H80.1397Z" fill="#999999"/>
<path d="M107.844 26.2377H99.7388L107.49 15.4111V11.5786H95.3342C93.957 11.5786 93.3223 12.2071 93.3223 13.583V16.9555H95.4804V16.6259C95.4804 15.7713 95.9266 15.3651 96.8537 15.3651H101.031L93.1992 26.3144V30.1468H107.817L107.844 26.2377Z" fill="#999999"/>
<path d="M138.339 29.6598V8.69248C138.339 7.02153 137.742 6.45816 136.115 6.45816H131.187V8.81511H131.484C132.607 8.81511 132.826 9.06806 132.826 10.4171V29.6598H138.339ZM140.77 29.6598H146.24V13.3297C146.24 11.6894 145.605 11.0993 144.001 11.0993H140.77V29.6598ZM130.41 29.6598V11.1146H127.167C125.563 11.1146 124.936 11.7048 124.936 13.3451V29.6598H130.41ZM151.418 19.0018C151.418 28.2418 144.748 34.9601 135.588 34.9601C126.429 34.9601 119.743 28.2418 119.743 19.0018C119.743 9.76173 126.425 3.04345 135.588 3.04345C144.751 3.04345 151.418 9.80005 151.418 19.0018ZM154.657 19.0018C154.657 8.13677 146.498 0.000488281 135.588 0.000488281C124.679 0.000488281 116.512 8.13677 116.512 19.0018C116.512 29.8667 124.671 37.9992 135.588 37.9992C146.506 37.9992 154.657 29.8936 154.657 19.0018Z" fill="#999999"/>
</g>
<defs>
<clipPath id="clip0_2012_122">
<rect width="153.781" height="38" fill="white" transform="translate(0.875)"/>
</clipPath>
</defs>
</svg>
