<svg width="198" height="38" viewBox="0 0 198 38" fill="none" xmlns="http://www.w3.org/2000/svg">
<path d="M189.679 12.6028H190.073C190.272 12.6028 190.488 12.6466 190.488 12.8859C190.488 13.1818 190.269 13.2 190.025 13.2H189.679V12.6028ZM189.679 13.45H190.012L190.515 14.2876H190.836L190.296 13.435C190.577 13.4009 190.79 13.2491 190.79 12.9041C190.79 12.5226 190.568 12.3538 190.116 12.3538H189.391V14.2876H189.679V13.45Z" fill="#999999"/>
<path d="M190.029 11.9232C190.776 11.9232 191.367 12.5215 191.367 13.3163C191.367 14.124 190.776 14.7191 190.029 14.7191C189.273 14.7191 188.681 14.124 188.681 13.3163C188.681 12.5215 189.273 11.9232 190.029 11.9232ZM190.029 14.999C190.929 14.999 191.698 14.2864 191.698 13.3163C191.698 12.3537 190.929 11.6433 190.029 11.6433C189.119 11.6433 188.35 12.3537 188.35 13.3163C188.35 14.2864 189.119 14.999 190.029 14.999Z" fill="#999999"/>
<path d="M147.306 13.085C149.131 13.085 150.611 11.9546 150.611 10.5593C150.611 9.16511 149.131 8.03478 147.306 8.03478C145.482 8.03478 144.002 9.16511 144.002 10.5593C144.002 11.9546 145.482 13.085 147.306 13.085Z" fill="#999999"/>
<path d="M195.613 18.7926C194.834 19.3867 193.88 20.0031 193.315 20.22C192.341 20.6772 191.505 20.4775 190.745 19.5063C189.876 18.3931 188.428 16.4711 187.552 15.439C186.824 14.5822 185.412 14.1303 183.931 15.4583C183.307 16.1142 182.159 17.2649 181.536 17.9785C180.932 18.7317 180.542 18.97 180.114 17.9785C179.725 17.1655 179.365 16.1837 178.887 15.3407C178.596 14.8247 178.497 14.2296 176.396 14.5277C173.864 15.0822 170.787 15.8162 167.886 15.9764C166.573 16.0063 165.336 15.8461 166.388 17.8012C166.893 18.9614 166.503 20.4849 165.873 21.4689C165.252 22.4358 163.826 22.6463 163.145 20.9155C162.613 19.5555 162.862 18.0576 163.722 16.8546C164.008 16.454 164.382 15.9358 165.398 15.5651C166.66 15.2019 167.242 13.891 164.888 13.9925C162.63 13.8322 160.488 14.7841 158.579 17.1655C157.141 18.8706 154.511 20.8354 152.622 21.6399C151.531 22.1837 150.49 22.2638 150.5 20.8845C150.451 19.6057 150.479 16.6698 150.47 15.736C150.5 14.845 150.509 14.7243 149.02 14.6271C147.891 14.5181 146.391 14.5662 145.496 14.6858C144.841 14.7734 144.347 15.1719 144.357 15.6185V17.6217C143.256 19.3674 140.141 21.8674 137.453 21.9871C137.142 21.9871 136.519 22.1837 137.103 21.1933C139.912 16.3247 134.631 13.6356 130.235 15.1976C128.224 15.9166 126.512 17.2841 125.27 19.1174C125.051 19.4273 125.11 19.0993 125.11 19.0993L125.08 15.3311C125.091 15.0427 124.914 14.6858 124.397 14.6356C123.591 14.5085 122.831 14.5469 121.819 14.6452C121.507 14.6271 121.236 14.9038 121.117 15.1613C121.117 15.1613 119.561 18.5341 117.263 20.1206C116.172 20.8546 115.957 20.7349 115.355 20.0416C114.207 18.7125 112.051 16.5127 111.363 15.5982C110.526 14.4871 109.182 14.329 108.131 15.6388C107.469 16.3525 105.631 18.7414 105.386 19.0897C104.841 19.8642 104.666 19.7638 104.237 19.1495C103.322 17.939 102.524 16.8471 101.589 15.6388C100.901 14.657 99.5385 14.0865 98.1624 15.5779C97.578 16.2927 96.2543 18.0587 95.6315 18.9315C95.0268 19.704 94.8131 19.9433 94.0535 18.9315C93.1967 17.7894 92.6123 17.0074 91.795 15.8974C90.7875 14.5266 89.3612 14.3685 88.0952 15.6185C86.6422 17.0544 84.6892 18.9123 83.4809 20.142C82.8773 20.7349 82.4296 21.0736 81.826 20.0416C81.2416 19.189 80.0739 17.6901 79.3912 16.9369C78.982 16.4839 77.2405 16.0747 76.92 17.7307C76.8025 20.2403 75.888 21.2713 74.8271 21.6089C73.0835 22.1644 72.5151 20.8589 72.7822 19.6057C73.1337 18.048 74.2715 16.7681 76.2181 16.1142C77.1925 15.8568 77.5814 14.6858 75.7512 14.6057C72.6551 14.6858 69.482 16.4518 64.4682 20.1516C63.6893 20.7456 63.0665 21.0832 62.1701 19.5758C61.4105 18.1869 60.3389 16.282 60.0291 15.7275C59.5515 14.8546 58.324 14.0501 56.8443 15.36C55.3657 16.6698 53.6328 18.157 52.9704 18.9903C52.7471 19.2392 52.2492 19.8642 52.1723 18.7317C52.0559 14.5662 52.0559 5.04486 52.0559 5.04486C52.0655 4.53952 52.105 4.33973 51.3742 4.35042C50.5559 4.29059 49.3101 4.39101 48.2877 4.45939C47.9757 4.47969 47.6243 4.64849 47.5858 4.97541C47.0121 9.09184 46.9298 18.3963 47.6211 22.049C48.1072 25.6868 50.7599 26.6281 53.0281 23.6815C53.9928 22.4732 54.4426 22.0298 54.7909 21.5597C55.355 20.7958 55.6274 20.7958 56.1253 21.4689C56.5975 22.1142 57.4586 23.8215 58.0035 24.377C58.7919 25.3877 60.3208 26.1516 63.4853 24.3663C64.497 23.8514 66.4148 22.1537 66.5718 21.9956C66.747 21.8183 67.2139 21.3514 67.1455 21.9272C66.8731 23.8802 69.56 27.0244 74.7192 24.9625C75.81 24.4069 76.6081 23.9497 77.0557 23.3952C77.2384 23.1676 77.4841 22.7777 77.7961 23.376C79.6839 26.2103 80.9692 26.3503 83.4617 24.0693C84.67 23.0971 87.0396 21.048 87.2384 20.8749C87.6475 20.517 87.998 20.2008 88.4659 20.8354C89.5364 22.4219 89.9648 22.9785 90.7832 24.1099C92.0877 25.8749 93.5054 26.1655 95.2351 24.1665C96.0407 23.2371 96.9167 22.2638 97.578 21.3514C97.999 20.7713 98.4156 20.5576 98.8633 21.2916C99.6015 22.3642 100.537 23.6334 101.141 24.3663C102.017 25.736 103.634 26.1131 104.938 24.3076C105.776 23.2157 106.533 22.3642 107.118 21.5106C107.713 20.5779 107.995 20.7072 108.638 21.5298C109.261 22.3418 110.71 24.08 110.71 24.08C112.357 26.2328 114.332 25.5479 116.756 24.1484C118.207 23.1858 119.298 22.2638 120.561 20.9337C120.535 25.2691 120.456 33.9282 121.137 37.3214C121.284 37.815 121.467 37.8801 121.917 37.9346C123.045 38.0735 123.824 37.9955 124.817 37.6579C125.287 37.4977 125.411 37.3406 125.402 36.6451C125.07 30.1003 124.505 23.7531 128.614 19.7253C134.475 14.9636 133.638 23.8706 129.354 22.8001C128.109 22.7007 128.477 23.6922 129.392 24.2082C131.496 25.4165 137.739 27.3086 144.057 21.5052C144.288 21.251 144.307 21.3514 144.298 21.5416C144.336 23.9304 144.905 25.8653 149.603 25.517C152.1 25.1655 154.413 24.6847 157.464 21.4337C157.703 21.1933 157.723 21.2916 157.725 21.5149C158.598 28.4133 174.682 27.2424 170.613 17.8204L173.318 17.3835C174.254 19.8642 175.305 22.2841 176.2 24.0095C177.304 26.1356 179.024 25.8749 180.25 24.268C181.165 23.2755 182.496 21.6751 183.113 20.8963C183.678 20.1815 184.242 20.1014 184.651 20.8546C185.781 22.4027 186.616 23.5138 187.299 24.2467C188.759 26.2509 190.785 25.5779 193.471 23.9101C195.184 22.7595 196.587 21.3514 197.794 19.6057C198.554 18.1367 197.073 17.7008 195.613 18.7926Z" fill="#999999"/>
<path d="M17.1153 5.51138V10.7165V23.2089C17.1175 23.3019 17.11 23.3735 17.0908 23.4258C17.0427 23.5594 16.923 23.5839 16.7072 23.5882H16.5662C0.934867 21.7207 1.48508 9.33508 12.3077 5.63104C12.657 5.51138 13.016 5.40027 13.3867 5.29985C13.7692 5.19621 14.1624 5.1022 14.5662 5.01886C15.203 4.88959 15.8664 4.78703 16.5555 4.71331C16.6698 4.70156 16.7617 4.69408 16.8354 4.69515C16.9807 4.69622 17.0555 4.73147 17.0918 4.83297C17.0972 4.85006 17.1025 4.86822 17.1068 4.88959C17.1314 5.01352 17.1217 5.2101 17.1153 5.51138ZM44.1323 20.007C41.346 21.4258 34.127 23.2186 30.9112 23.4611C30.252 23.5262 30.1698 23.5081 30.1783 23.1342V5.5851C30.1601 4.78275 30.127 4.76352 30.7381 4.7881C31.3054 4.81053 31.7071 4.86716 32.2606 4.94408C34.8182 5.30305 37.7466 6.18339 39.3909 6.73039C40.1067 6.96757 40.4304 7.07014 41.2007 7.3586C41.4667 7.46543 42.1985 7.72291 42.5105 7.82547C43.0052 7.97504 43.1975 8.24534 43.0436 7.23146C42.8225 6.22933 42.1708 5.48254 40.7968 4.4366C33.1014 -1.42448 16.4626 -1.08901 8.80341 3.16845C-4.2072 10.225 0.0449139 21.7239 9.13247 25.4952C16.7564 28.7442 31.8182 31.0219 43.0863 21.7795C43.4325 21.4846 44.0949 20.9226 44.5992 20.3147C45.2413 19.5316 44.6536 19.7186 44.1323 20.007" fill="#999999"/>
</svg>
