<svg width="123" height="40" viewBox="0 0 123 40" fill="none" xmlns="http://www.w3.org/2000/svg">
<g clip-path="url(#clip0_2012_131)">
<path d="M47.5667 34.8932C43.0211 31.965 36.8523 31.4512 26.9035 34.2114C16.2975 36.7037 12.7613 38.3014 8.11725 35.0941C6.33312 33.5186 5.69347 30.9818 6.17111 27.3277C7.27894 21.3709 10.2728 15.6385 15.5905 9.27977C18.5588 5.97201 21.3121 3.13334 24.9479 1.99344C27.7343 1.27835 27.4738 3.46821 27.1367 3.78139C26.7809 3.78139 26.1832 3.83743 25.7213 4.13886C25.3464 4.4296 24.3174 5.36839 24.2621 6.63121C24.1824 8.56438 26.1831 8.16201 27.046 7.1006C27.976 5.90452 29.3506 3.61403 28.2694 1.4793C27.8162 0.719474 27.0331 0.194343 26.0609 0.0155326C22.7318 -0.17473 19.6312 1.41227 16.7698 3.16678C10.5119 7.51396 5.50595 13.5376 2.67339 20.1312C1.04028 24.1094 -0.436627 29.8081 1.7772 34.4464C3.48972 37.6646 7.04516 39.3741 11.287 39.0166C14.262 38.7041 17.8594 37.7425 20.2789 37.162C22.6985 36.5805 35.0837 32.3231 39.1531 39.7328C39.1531 39.7328 40.5063 37.1059 43.8882 37.0499C46.6685 36.7933 50.6794 37.8548 53.6004 40C52.6273 38.5366 49.8683 36.3797 47.5667 34.8932V34.8932Z" fill="#999999"/>
<path d="M28.1666 10.0283C25.8501 8.50845 21.1943 11.414 17.4653 16.3979C14.0552 20.8685 12.5827 26.0644 14.1851 28.4671C16.5689 31.2943 20.9941 27.182 22.876 24.9808L23.1188 24.7235C24.3986 23.3489 25.3873 21.6949 26.3442 20.1079C26.3442 20.1079 27.2238 18.6551 27.2658 18.5879C27.8094 18.4878 28.4642 18.3313 29.202 18.1189C29.1915 18.1521 26.3791 22.8794 26.666 25.2258C26.7553 25.9416 26.6871 28.5566 29.2402 29.3499C32.6429 29.9202 35.36 27.2825 37.7571 24.9356C37.7571 24.9356 38.1656 24.5449 38.3966 24.3218C38.3381 24.5559 38.2619 24.8681 38.2619 24.8681C37.2657 28.3326 38.6086 29.0594 39.4486 29.3277C41.9872 30.0657 45.0199 26.3776 45.0297 26.3776C44.9511 27.5393 44.7211 28.5004 45.9457 29.2715C47.1017 29.6853 48.2715 29.0545 49.1607 28.4622C52.3635 26.2049 54.9438 22.6719 57.028 19.6179H55.6986C55.6829 19.6179 52.4182 24.3497 50.2983 25.3782C50.2949 25.3782 49.9092 25.5762 49.6869 25.4195C49.4117 25.1847 49.5203 24.6967 49.6902 24.351C49.7009 24.3284 57.8753 10.1506 57.8753 10.1506H54.0157C54.0157 10.1506 53.5941 10.8327 53.5598 10.8774C53.5338 10.8551 53.472 10.7379 53.429 10.6817C51.0378 7.3739 45.6226 12.4618 41.5457 18.3621C39.9761 20.6309 37.9778 23.1854 35.9056 25.0292C35.9056 25.0292 32.8359 27.8432 31.5242 25.8214C31.0448 24.972 31.1923 23.7301 31.4627 22.9145C32.9899 18.5673 35.6213 14.6221 38.6157 12.2415C39.4611 11.5826 40.3799 11.392 40.8358 11.6715C41.2702 11.9289 41.3403 12.5654 41.0655 13.0013C40.3681 12.979 39.8094 13.191 39.3551 13.6604C38.4603 14.5992 38.1494 15.5045 38.4339 16.354C39.8159 18.3207 42.5723 14.4316 42.439 12.0625C42.3914 11.2131 41.9382 10.4086 41.2619 10.0171C40.2539 9.41396 38.7162 9.57017 37.7211 10.051C36.3889 10.5537 34.2802 12.3081 33.0493 13.6717C31.4997 15.3817 28.8421 17.2813 28.011 17.0686C28.2832 16.3419 30.528 11.749 28.1666 10.0283V10.0283ZM46.7746 16.8228C47.5254 15.7836 49.7107 13.0009 50.2434 12.5316C52.0352 10.9553 52.7514 11.6489 52.8134 12.1402C51.1412 15.1351 49.1675 18.5661 47.3119 21.6506C47.3157 21.6396 46.7312 22.5334 46.7312 22.5334C45.9117 23.7847 45.0865 24.8576 43.7405 25.6063C43.5485 25.6625 43.2321 25.6849 43.0216 25.528C42.7681 25.3603 42.6681 25.0809 42.6966 24.7901C42.7772 23.8293 43.7556 20.8908 46.7746 16.8228V16.8228ZM25.7777 18.6218C25.7777 18.6218 25.7441 18.7228 25.7275 18.7558C25.7232 18.7558 24.0448 21.4934 24.0448 21.4934C23.0318 22.8458 21.7669 24.5449 20.1859 25.3603C19.7173 25.5168 19.0695 25.6176 18.7394 25.2044C18.0396 24.3661 18.4002 23.2039 18.6933 22.2652L18.797 21.9299C19.6371 19.6504 20.9702 17.6385 22.2676 15.7722C22.2838 15.7612 22.3202 15.75 22.3333 15.75C22.3364 15.7612 22.3416 15.7612 22.3438 15.7836C23.158 17.3479 24.6847 18.074 25.8264 18.4098C25.8333 18.4098 25.8406 18.4209 25.8406 18.4433C25.8408 18.4766 25.8222 18.5217 25.7777 18.6218V18.6218ZM27.3679 15.3926C27.3606 15.4149 26.6203 17.1133 26.6203 17.1133C26.5133 17.2027 26.3441 17.1581 26.1502 17.1133L25.8179 17.0571C24.7745 16.7333 23.9875 16.0403 23.7449 15.2135C23.4101 13.6042 24.7849 12.3413 25.3906 11.8834C25.9718 11.4807 26.8753 11.2685 27.4 11.6821C27.7236 12.0622 27.8462 12.5537 27.8462 13.0905C27.8463 13.8167 27.6222 14.6324 27.3679 15.3926V15.3926Z" fill="#999999"/>
<path d="M76.1615 20.5778C75.7894 19.7734 74.9059 19.2592 73.9643 19.315C70.9068 19.5946 67.9162 22.1089 66.346 25.7183C65.5221 27.5735 65.0724 29.1043 64.7775 31.5405C65.7282 30.4457 67.6675 28.6466 69.8682 27.663C69.8682 27.663 70.1676 25.3275 71.6946 23.2488C72.2724 22.388 73.4288 21.0025 74.7272 21.3711C75.8616 21.7513 75.4629 24.8915 73.9552 27.9306C72.8395 30.1659 71.1324 32.4016 69.405 33.9434C67.8779 35.2398 65.6184 36.8042 63.6416 35.5974C62.3965 34.8602 61.7614 33.3176 61.8956 31.3284C62.4905 25.6851 65.0594 20.8797 68.7356 15.4039C72.5262 10.3192 76.7047 5.1004 82.3336 2.31731C83.4817 1.73629 84.545 1.60222 85.4641 1.95985C85.4641 1.95985 80.1801 4.8654 77.6613 10.2409C77.0206 11.6045 76.1294 13.4478 77.0268 15.0796C77.4958 15.9287 78.3285 15.9959 78.9988 15.9512C82.0862 15.2358 84.0809 12.3527 85.7107 9.71557C86.6556 7.71522 87.4954 5.72601 87.4954 3.51325C87.4954 3.24511 87.4815 2.88764 87.4588 2.6192C88.9338 1.83723 91.9585 3.22266 91.9585 3.22266C94.3221 4.00525 99.3549 7.86089 101.053 8.59812C101.881 7.63719 103.242 6.18456 104.008 5.45802L102.899 4.77622C101.123 3.69221 99.2456 2.66394 97.3979 1.64712C93.2019 -0.643517 89.7865 0.1609 88.0482 0.786813C87.365 1.03251 86.7406 1.24491 86.7406 1.24491C85.4506 -0.163126 83.335 -0.0293623 81.7761 0.350858C76.1699 1.96 70.9649 5.88237 65.3845 12.6883C61.2818 18.019 58.7369 22.6234 57.3805 27.1715C56.3349 30.2333 56.0172 34.737 58.5691 37.408C60.7388 39.6758 63.6158 39.1846 65.6474 38.369C70.0493 36.201 74.0055 31.5295 75.9769 26.1542C76.4525 24.5564 76.9806 22.299 76.1615 20.5778V20.5778ZM86.2833 3.73695C85.7006 10.4198 80.5059 14.3427 79.2207 14.6551C78.4418 14.8113 77.1127 14.4651 78.2991 11.6605C80.0465 7.88288 83.0296 4.6759 86.2303 3.03301C86.3082 3.31245 86.3062 3.4908 86.2833 3.73695V3.73695Z" fill="#999999"/>
<path d="M117.097 4.58575C114.302 6.1729 111.406 7.20071 107.899 6.84325C106.928 7.93871 105.981 9.06731 105.109 10.2293C110.031 11.481 115.248 8.69838 118.158 6.05013C121.236 3.37912 122.814 0.015625 122.814 0.015625C122.814 0.015625 120.507 2.65273 117.097 4.58575Z" fill="#999999"/>
<path d="M62.2213 13.5103L64.2896 10.1509H60.6242L58.5566 13.5103H62.2213Z" fill="#999999"/>
<path d="M107.886 35.2041C107.492 35.4723 106.938 35.2661 107.145 34.6517C107.661 33.0871 109.711 29.8988 109.711 29.8988L115.421 19.7709H111.51C111.324 20.0762 110.926 20.7776 110.926 20.7776C110.745 20.4762 110.204 19.8058 109.981 19.6611C109.026 19.0571 107.624 19.3427 106.657 19.8901C102.451 22.349 99.3833 27.2071 96.9636 30.9957C96.9636 30.9957 94.4164 35.2072 93.0024 35.5204C91.8986 35.6098 92.0125 34.1229 92.0603 33.7764C92.4871 31.2727 93.4782 28.8926 94.4769 26.7357C96.5079 25.3277 98.8259 23.4839 100.932 21.4612C105.504 17.0913 109.358 12.1406 109.921 11.0343C109.921 11.0343 109.311 11.1574 108.591 11.1796C105.074 16.0855 97.8775 23.2156 95.6956 24.277C96.6622 21.9522 102.907 10.8554 108.221 5.54726L109.058 4.74239C110.351 3.47957 111.691 2.18331 112.735 1.9709C112.845 1.95976 112.987 1.9709 113.11 2.22835C113.156 3.21158 112.79 3.93812 112.37 4.76499L111.782 5.97207C111.782 5.97207 112.616 5.81555 113.163 5.63628C113.798 4.44111 114.502 3.09965 114.242 1.50196C114.156 0.987828 113.784 0.596766 113.297 0.507284C111.712 0.205552 109.984 1.37858 108.594 2.32883L108.538 2.36212C101.391 7.96097 95.3567 16.0296 90.0808 27.0485C89.6985 27.3386 88.2211 27.6854 87.9699 27.5176C88.491 26.445 89.1469 25.0031 89.4752 23.4385C89.532 22.9914 89.5849 22.5335 89.5849 22.0865C89.5849 21.1247 89.354 20.2198 88.4923 19.5942C87.4821 19.0912 86.2334 19.326 85.3916 19.7058C81.6203 21.2704 78.8016 25.1373 76.7676 28.3218C75.6737 30.3451 74.583 32.512 74.2809 34.9934C74.0682 36.9376 74.5013 38.1892 75.6067 38.8153C76.7435 39.396 78.1743 38.7924 78.7364 38.5021C82.5571 36.4906 85.2266 32.4566 87.3309 28.7685C87.4146 28.7575 88.5635 28.7242 89.4325 28.5003C89.4441 28.5003 89.449 28.5003 89.4682 28.5121C89.4184 28.679 88.9694 30.0205 88.9694 30.0205C87.6357 33.9315 87.0189 36.5915 88.2787 38.1669C90.0789 40.391 93.0591 38.0891 95.4835 35.0488C94.9631 38.6919 96.8512 39.2621 98.2904 38.983C99.9437 38.5362 101.786 36.77 102.641 35.8652C102.366 36.9266 102.441 38.8266 103.945 39.0164C104.976 39.207 105.747 38.6463 106.64 38.1656C109.842 36.422 113.675 30.6123 114.67 28.9326H113.365C111.951 31.0706 110.15 33.8737 107.886 35.2041V35.2041ZM79.1453 34.815C78.9422 34.5133 78.8749 34.1833 78.8682 33.8266C78.8292 31.6354 81.1867 27.7112 82.8509 25.5734C82.8544 25.5734 82.8544 25.5734 82.8544 25.5734C83.5517 27.1004 85.131 28.0819 86.0843 28.4956C84.9002 31.1332 80.8395 36.7818 79.1453 34.815V34.815ZM86.7525 27.3165C86.6396 27.3951 84.6483 26.7243 84.2635 24.8805C83.937 23.293 85.0302 22.0526 86.0878 21.4273C86.5417 21.0696 87.2255 20.9469 87.7271 21.125C88.1927 21.4383 88.3189 21.9975 88.3189 22.6001C88.3189 22.9696 88.2698 23.3492 88.2266 23.6955C88.2266 23.6955 88.2184 23.7629 88.217 23.774C87.8852 25.0141 87.3775 26.2323 86.7525 27.3165V27.3165ZM102.724 34.1111C102.722 34.1111 102.346 34.4463 102.346 34.4463C101.809 34.9265 101.256 35.4406 100.589 35.1835C100.405 35.1165 100.275 34.8709 100.244 34.6804C100.214 33.3058 100.833 32.0321 101.433 30.7919L101.587 30.4676C103.314 27.5844 105.321 24.1872 108.268 21.8295C108.765 21.4712 109.304 21.17 109.873 21.4049C110.004 21.5275 110.156 21.7401 110.156 21.9522C110.156 22.0195 110.097 22.1981 110.062 22.2537C109.239 23.5842 108.455 24.9809 107.692 26.3218C106.202 28.9705 104.657 31.7081 102.724 34.1111V34.1111Z" fill="#999999"/>
</g>
<defs>
<clipPath id="clip0_2012_131">
<rect width="122.159" height="40" fill="white" transform="translate(0.65625)"/>
</clipPath>
</defs>
</svg>
