<svg width="580" height="481" viewBox="0 0 580 481" fill="none" xmlns="http://www.w3.org/2000/svg">
<path fill-rule="evenodd" clip-rule="evenodd" d="M105.549 0C64.8205 0 25.7621 15.7843 -3.03648 43.8805L-142 179.454V241.511C-142 285.354 -122.697 324.798 -91.9291 352.195C-122.697 379.592 -142 419.036 -142 462.879V524.936L-3.03648 660.51C25.7621 688.606 64.8205 704.39 105.549 704.39C150.488 704.39 190.918 685.558 219 655.541C247.082 685.558 287.512 704.39 332.451 704.39C373.179 704.39 412.238 688.606 441.037 660.51L580 524.936V462.879C580 419.036 560.697 379.592 529.929 352.195C560.697 324.798 580 285.354 580 241.511V179.454L441.037 43.8805C412.238 15.7843 373.179 0 332.451 0C287.512 0 247.082 18.8325 219 48.8496C190.918 18.8325 150.488 0 105.549 0ZM322.946 352.195C321.215 350.654 319.517 349.071 317.853 347.447L219 251.006L120.147 347.447C118.483 349.071 116.785 350.654 115.054 352.195C116.785 353.736 118.483 355.319 120.147 356.942L219 453.384L317.853 356.942C319.517 355.319 321.215 353.736 322.946 352.195ZM259.111 524.936V554.573C259.111 594.09 291.947 626.125 332.451 626.125C351.902 626.125 370.557 618.586 384.311 605.168L499.779 492.517V462.879C499.779 423.363 466.942 391.327 426.438 391.327C406.987 391.327 388.332 398.866 374.578 412.285L259.111 524.936ZM178.889 524.936L63.4216 412.285C49.6675 398.866 31.0136 391.327 11.5625 391.327C-28.9422 391.327 -61.7779 423.363 -61.7779 462.879V492.517L53.6891 605.168C67.4432 618.586 86.0978 626.125 105.549 626.125C146.053 626.125 178.889 594.09 178.889 554.573V524.936ZM178.889 149.817V179.454L63.4216 292.105C49.6675 305.524 31.0136 313.062 11.5625 313.062C-28.9422 313.062 -61.7779 281.027 -61.7779 241.511V211.873L53.6891 99.2225C67.4432 85.804 86.0978 78.2656 105.549 78.2656C146.053 78.2656 178.889 110.3 178.889 149.817ZM374.578 292.105L259.111 179.454V149.817C259.111 110.3 291.947 78.2656 332.451 78.2656C351.902 78.2656 370.557 85.804 384.311 99.2225L499.779 211.873V241.511C499.779 281.027 466.942 313.062 426.438 313.062C406.987 313.062 388.332 305.524 374.578 292.105Z" fill="url(#paint0_linear_2012_61)" fill-opacity="0.2"/>
<defs>
<linearGradient id="paint0_linear_2012_61" x1="219" y1="-507" x2="219" y2="502" gradientUnits="userSpaceOnUse">
<stop stop-color="white" stop-opacity="0.56"/>
<stop offset="1" stop-color="white" stop-opacity="0"/>
</linearGradient>
</defs>
</svg>
