<svg width="194" height="194" viewBox="0 0 194 194" fill="none" xmlns="http://www.w3.org/2000/svg">
<circle cx="97" cy="97" r="93.5" fill="#601FEB" stroke="#111111" stroke-width="7"/>
<path d="M85.3876 33.9721L85.7568 35.333L77.9475 37.3074L74.6545 24.869L76.1803 24.4919L79.1178 35.5929L85.3876 33.9721Z" fill="white" stroke="white" stroke-width="0.5" stroke-miterlimit="10"/>
<path d="M86.7641 23.686L87.2132 27.9915L94.2538 27.3581L94.3968 28.7551L87.3679 29.3818L87.8169 33.6873L95.5145 32.9894L95.6576 34.3863L86.3694 35.2156L85.0441 22.444L94.3207 21.6214L94.4686 22.9999L86.7641 23.686Z" fill="white" stroke="white" stroke-width="0.5" stroke-miterlimit="10"/>
<circle cx="58.8249" cy="39.3003" r="3.27815" transform="rotate(-33.7889 58.8249 39.3003)" fill="#AAE500"/>
<circle cx="136.606" cy="154.632" r="3.27815" transform="rotate(-33.7889 136.606 154.632)" fill="#AAE500"/>
<path d="M106.784 22.3897L106.696 23.8412L102.377 23.5489L101.71 34.8738L100.103 34.7628L100.77 23.4379L96.4233 23.0984L96.5226 21.6402L106.784 22.3897Z" fill="white" stroke="white" stroke-width="0.5" stroke-miterlimit="10"/>
<path d="M110.72 23.2501L108.846 27.1656L107.707 26.9573L109.144 22.9793L110.72 23.2501Z" fill="white" stroke="white" stroke-width="0.5" stroke-miterlimit="10"/>
<path d="M114.432 31.0406C112.535 29.9475 111.828 28.5616 112.307 26.8526C112.447 26.364 112.7 25.9174 113.045 25.5489C113.39 25.1805 113.816 24.9003 114.291 24.7309C115.365 24.3123 116.556 24.2869 117.66 24.6592C118.268 24.8067 118.842 25.0802 119.345 25.4624C119.847 25.8445 120.266 26.3269 120.577 26.8788C120.836 27.3362 121.001 27.8411 121.06 28.3621C121.12 28.883 121.072 29.4089 120.921 29.9069L119.349 29.4292C119.441 29.1194 119.471 28.7933 119.438 28.4695C119.404 28.1457 119.308 27.8306 119.155 27.5424C118.96 27.1769 118.691 26.8562 118.365 26.6016C118.04 26.347 117.666 26.1643 117.268 26.0658C116.536 25.7924 115.737 25.7909 115.013 26.0614C114.74 26.1646 114.495 26.3314 114.299 26.5485C114.103 26.7656 113.96 27.027 113.883 27.3118C113.637 28.194 114.086 28.9731 115.246 29.6728L117.515 30.929C119.526 32.1499 120.29 33.6341 119.808 35.3818C119.653 35.8885 119.38 36.3488 119.013 36.7251C118.645 37.1013 118.193 37.3828 117.694 37.5466C116.519 37.975 115.227 37.9821 114.033 37.5667C113.37 37.3836 112.748 37.0673 112.205 36.6367C111.662 36.2062 111.21 35.6704 110.874 35.0618C110.599 34.5684 110.428 34.0246 110.37 33.4646C110.312 32.9047 110.37 32.3407 110.539 31.8083L112.092 32.2808C111.901 32.9709 111.981 33.7138 112.318 34.3545C112.532 34.7792 112.831 35.1558 113.196 35.4602C113.56 35.7647 113.982 35.9905 114.434 36.1232C115.21 36.4174 116.056 36.4441 116.839 36.1988C117.166 36.118 117.465 35.9539 117.71 35.722C117.954 35.4902 118.134 35.1983 118.234 34.8739C118.504 33.8992 118.014 33.0492 116.748 32.3003L114.432 31.0406Z" fill="white" stroke="white" stroke-width="0.5" stroke-miterlimit="10"/>
<path d="M130.278 41.4085C130.268 42.0026 130.402 42.5925 130.668 43.1274C130.934 43.6623 131.323 44.126 131.803 44.4786C132.188 44.7635 132.625 44.968 133.087 45.0798C133.55 45.1916 134.028 45.2084 134.493 45.1292C135.701 44.884 136.771 44.199 137.501 43.2036L134.147 40.9217L134.977 39.6869L139.662 42.8846L135.884 48.6075L134.636 47.7543L135.704 46.1302C134.973 46.4914 134.147 46.617 133.335 46.4904C132.494 46.4103 131.681 46.1226 130.969 45.6528C130.282 45.2232 129.704 44.6346 129.285 43.9368C128.866 43.239 128.618 42.4524 128.562 41.6436C128.54 39.9372 129.038 38.2742 129.989 36.8805C130.939 35.4867 132.297 34.4297 133.877 33.8527C134.616 33.6057 135.405 33.5386 136.181 33.6566C136.957 33.7747 137.697 34.0748 138.343 34.5326C138.964 34.9135 139.507 35.4132 139.94 36.0031C140.374 36.593 140.689 37.2615 140.868 37.9702C141.116 39.1647 140.96 40.4019 140.427 41.483L139.009 40.5231C139.401 39.7102 139.471 38.7719 139.204 37.8977C138.937 37.0234 138.353 36.2784 137.57 35.813C137.092 35.4903 136.542 35.294 135.973 35.2428C135.403 35.1916 134.833 35.287 134.315 35.5202C133.131 35.9881 132.128 36.8203 131.446 37.9005C130.704 38.9131 130.296 40.1389 130.278 41.4085Z" fill="white" stroke="white" stroke-width="0.5" stroke-miterlimit="10"/>
<path d="M145.92 42.6871L142.947 45.7417L148.034 50.785L147.068 51.7837L141.98 46.7404L139.007 49.795L144.572 55.3181L143.606 56.3167L136.887 49.6498L145.693 40.5832L152.423 47.2434L151.45 48.2302L145.92 42.6871Z" fill="white" stroke="white" stroke-width="0.5" stroke-miterlimit="10"/>
<path d="M160.032 57.3484L158.875 58.205L156.287 54.6308L147.247 61.2351L146.304 59.9223L155.332 53.3246L152.737 49.7387L153.901 48.8939L160.032 57.3484Z" fill="white" stroke="white" stroke-width="0.5" stroke-miterlimit="10"/>
<path d="M160.413 73.2154C160.134 71.0473 160.834 69.6673 162.49 69.0888C162.964 68.9209 163.472 68.8693 163.973 68.9384C164.474 69.0074 164.954 69.1952 165.373 69.4861C166.363 70.1234 167.105 71.0875 167.471 72.2103C167.713 72.7939 167.835 73.4194 167.829 74.0482C167.823 74.677 167.69 75.2957 167.437 75.866C167.225 76.3415 166.918 76.7658 166.533 77.1123C166.149 77.4587 165.697 77.7198 165.204 77.8789L164.648 76.3271C165.26 76.1192 165.763 75.6763 166.049 75.093C166.223 74.7207 166.316 74.3145 166.325 73.9005C166.333 73.4865 166.255 73.0738 166.096 72.689C165.868 71.9364 165.388 71.2838 164.738 70.8445C164.493 70.6844 164.216 70.5826 163.928 70.547C163.64 70.5114 163.348 70.5429 163.077 70.639C162.224 70.9265 161.865 71.7477 162.004 73.0841L162.311 75.646C162.566 77.9856 161.831 79.4648 160.121 80.0582C159.625 80.2251 159.095 80.2689 158.574 80.186C158.054 80.103 157.559 79.8957 157.13 79.5814C156.078 78.8669 155.295 77.8128 154.913 76.5959C154.659 75.9504 154.537 75.2615 154.556 74.5717C154.574 73.8818 154.731 73.2054 155.019 72.5838C155.246 72.0794 155.572 71.628 155.978 71.256C156.383 70.8841 156.86 70.5993 157.379 70.4184L157.929 71.9584C157.262 72.2008 156.719 72.6951 156.411 73.3383C156.198 73.7556 156.076 74.2154 156.053 74.6872C156.03 75.159 156.107 75.6321 156.278 76.0751C156.506 76.8764 156.989 77.5829 157.654 78.0829C157.914 78.3065 158.226 78.4591 158.559 78.5259C158.893 78.5928 159.236 78.5715 159.556 78.4643C160.496 78.1418 160.886 77.24 160.738 75.7824L160.413 73.2154Z" fill="white" stroke="white" stroke-width="0.5" stroke-miterlimit="10"/>
<path d="M171.356 89.4691L169.947 89.7004L169.153 85.3582L158.098 87.2703L157.809 85.6741L168.859 83.7805L168.087 79.504L169.497 79.2727L171.356 89.4691Z" fill="white" stroke="white" stroke-width="0.5" stroke-miterlimit="10"/>
<path d="M159.061 102.675L159.031 100.992L162.817 99.7191L162.739 94.2392L158.925 92.9783L158.9 91.2772L171.652 95.4054L171.719 98.5148L159.061 102.675ZM164.192 99.2404L170.984 96.8932L164.068 94.5897L164.192 99.2404Z" fill="white" stroke="white" stroke-width="0.5" stroke-miterlimit="10"/>
<path d="M157.308 113.32L157.616 111.395L163.519 108.632L163.965 105.903L158.668 104.932L158.922 103.369L171.447 105.66L170.419 111.763C170.345 112.23 170.179 112.675 169.932 113.073C169.685 113.471 169.361 113.814 168.979 114.083C168.598 114.352 168.166 114.54 167.709 114.638C167.252 114.735 166.778 114.74 166.316 114.652C165.364 114.509 164.494 114.012 163.876 113.258C163.568 112.877 163.346 112.432 163.226 111.957C163.107 111.482 163.092 110.988 163.184 110.51L157.308 113.32ZM164.636 110.38C164.558 110.71 164.555 111.055 164.627 111.39C164.7 111.724 164.847 112.038 165.056 112.309C165.431 112.72 165.935 112.986 166.478 113.062C167.022 113.179 167.586 113.114 168.083 112.876C168.344 112.747 168.569 112.556 168.738 112.318C168.907 112.08 169.016 111.804 169.055 111.512L169.808 106.937L165.291 106.114L164.636 110.38Z" fill="white" stroke="white" stroke-width="0.5" stroke-miterlimit="10"/>
<path d="M165.952 127.439L164.583 126.938L165.992 122.804L155.341 118.895L155.858 117.385L166.5 121.251L167.908 117.117L169.277 117.617L165.952 127.439Z" fill="white" stroke="white" stroke-width="0.5" stroke-miterlimit="10"/>
<path d="M162.812 130.684L159.054 128.557L155.688 134.781L154.475 134.096L157.841 127.872L154.07 125.751L150.41 132.587L149.197 131.902L153.693 123.655L164.855 129.945L160.358 138.192L159.152 137.519L162.812 130.684Z" fill="white" stroke="white" stroke-width="0.5" stroke-miterlimit="10"/>
<path d="M147.121 144.905C146.423 144.366 145.836 143.693 145.394 142.927C144.951 142.161 144.663 141.317 144.544 140.443C144.437 139.789 144.467 139.122 144.631 138.486C144.795 137.849 145.089 137.256 145.496 136.745L148.649 132.8L158.579 140.966L155.419 144.899C155.01 145.417 154.494 145.838 153.906 146.134C153.318 146.43 152.672 146.594 152.012 146.615C151.13 146.671 150.244 146.549 149.404 146.256C148.564 145.962 147.788 145.503 147.121 144.905ZM146.233 140.695C146.649 141.819 147.359 142.812 148.287 143.567C149.215 144.321 150.325 144.808 151.497 144.976C152.006 145.042 152.522 144.976 152.994 144.783C153.466 144.59 153.88 144.278 154.194 143.875L156.356 141.178L148.905 135.06C147.434 136.87 146.704 137.795 146.687 137.82C146.377 138.211 146.171 138.676 146.088 139.172C146.005 139.669 146.048 140.18 146.213 140.66L146.233 140.695Z" fill="white" stroke="white" stroke-width="0.5" stroke-miterlimit="10"/>
<path d="M111.545 159.371L111.129 158.037L118.851 155.751L122.622 168.055L121.107 168.504L117.757 157.516L111.545 159.371Z" fill="white" stroke="white" stroke-width="0.5" stroke-miterlimit="10"/>
<path d="M110.529 169.716L109.884 165.366L102.885 166.259L102.655 164.818L109.654 163.925L109.1 159.759L101.435 160.753L101.239 159.371L110.472 158.18L112.293 170.901L103.053 172.081L102.863 170.71L110.529 169.716Z" fill="white" stroke="white" stroke-width="0.5" stroke-miterlimit="10"/>
<path d="M90.5547 171.787L90.5872 170.32L94.9351 170.502L95.1856 159.15L96.7722 159.225L96.5149 170.566L100.874 170.74L100.842 172.207L90.5547 171.787Z" fill="white" stroke="white" stroke-width="0.5" stroke-miterlimit="10"/>
<path d="M86.6612 171.138L88.3797 167.14L89.5279 167.311L88.2887 171.285L86.6612 171.138Z" fill="white" stroke="white" stroke-width="0.5" stroke-miterlimit="10"/>
<path d="M82.6328 163.437C84.5599 164.424 85.3184 165.791 84.908 167.539C84.7858 168.019 84.5569 168.463 84.2387 168.837C83.9205 169.212 83.5212 169.507 83.0707 169.701C82.0131 170.161 80.8247 170.236 79.7056 169.913C79.0933 169.784 78.5115 169.531 77.9964 169.167C77.4813 168.804 77.044 168.339 76.7117 167.8C76.4331 167.353 76.2481 166.853 76.1682 166.333C76.0884 165.813 76.1154 165.284 76.2477 164.779L77.8454 165.194C77.763 165.507 77.7431 165.835 77.7867 166.158C77.8304 166.482 77.9368 166.794 78.0998 167.078C78.3069 167.438 78.5874 167.751 78.9225 167.995C79.2576 168.238 79.6393 168.408 80.0419 168.491C80.7831 168.729 81.579 168.698 82.291 168.404C82.5623 168.291 82.8021 168.114 82.9905 167.887C83.179 167.661 83.3108 167.392 83.375 167.101C83.5918 166.221 83.1188 165.455 81.9308 164.787L79.6831 163.566C77.6097 162.434 76.8013 160.98 77.1816 159.234C77.3139 158.723 77.5656 158.255 77.9158 157.866C78.2659 157.478 78.7044 157.181 79.1947 157.001C80.3527 156.511 81.6517 156.452 82.8634 156.835C83.5308 156.993 84.1618 157.285 84.7187 157.694C85.2756 158.103 85.7468 158.62 86.104 159.214C86.3959 159.693 86.5907 160.225 86.6769 160.779C86.763 161.332 86.7388 161.895 86.6055 162.434L85.0378 162.017C85.1955 161.321 85.0854 160.586 84.7295 159.96C84.5027 159.542 84.1913 159.175 83.816 158.884C83.4407 158.593 83.01 158.385 82.5524 158.274C81.7672 158.01 80.9226 158.011 80.1473 158.277C79.8214 158.369 79.5263 158.546 79.2909 158.789C79.0555 159.033 78.8879 159.335 78.8046 159.666C78.5641 160.639 79.0847 161.488 80.3646 162.181L82.6328 163.437Z" fill="white" stroke="white" stroke-width="0.5" stroke-miterlimit="10"/>
<path d="M66.4066 153.667C66.3955 153.07 66.2393 152.484 65.9519 151.958C65.6645 151.432 65.2546 150.983 64.7585 150.652C64.3607 150.384 63.9152 150.198 63.4484 150.106C62.9815 150.013 62.5026 150.015 62.0399 150.112C60.8442 150.392 59.8036 151.117 59.1232 152.142L62.5474 154.305L61.7378 155.575L56.922 152.579L60.4916 146.709L61.775 147.542L60.7572 149.2C61.4714 148.806 62.2935 148.651 63.1082 148.755C64.337 148.824 65.5097 149.329 66.4177 150.183C67.3256 151.036 67.9101 152.182 68.0673 153.416C68.1656 155.126 67.7395 156.816 66.8473 158.255C65.9551 159.694 64.6401 160.813 63.0818 161.458C62.3474 161.726 61.558 161.816 60.7768 161.72C59.9955 161.625 59.2441 161.346 58.5826 160.907C57.9477 160.552 57.3866 160.075 56.9317 159.502C56.4769 158.93 56.1373 158.274 55.9326 157.573C55.625 156.386 55.7311 155.135 56.233 154.031L57.6907 154.953C57.3308 155.778 57.296 156.716 57.5933 157.578C57.8906 158.44 58.498 159.162 59.2934 159.599C59.7842 159.906 60.3427 160.082 60.9153 160.11C61.4879 160.138 62.0554 160.016 62.5634 159.758C63.6976 159.221 64.6537 158.37 65.3224 157.302C65.991 156.234 66.345 154.992 66.344 153.719L66.4066 153.667Z" fill="white" stroke="white" stroke-width="0.5" stroke-miterlimit="10"/>
<path d="M50.7587 153.02L53.5488 149.835L48.2893 145.001L49.2353 143.967L54.5063 148.794L57.2964 145.609L51.5178 140.304L52.4637 139.27L59.4291 145.668L50.9839 155.093L44.0001 148.69L44.946 147.655L50.7587 153.02Z" fill="white" stroke="white" stroke-width="0.5" stroke-miterlimit="10"/>
<path d="M36.1149 138.935L37.2441 138.031L39.9758 141.507L48.7398 134.558L49.734 135.826L40.9496 142.739L43.663 146.209L42.5338 147.113L36.1149 138.935Z" fill="white" stroke="white" stroke-width="0.5" stroke-miterlimit="10"/>
<path d="M35.1096 123.003C35.4608 125.161 34.8161 126.556 33.2094 127.248C32.7417 127.435 32.2346 127.506 31.7302 127.455C31.2258 127.404 30.7387 127.233 30.3092 126.955C29.3043 126.358 28.5324 125.428 28.128 124.326C27.8623 123.752 27.7144 123.132 27.6933 122.503C27.6722 121.873 27.7785 121.248 28.0055 120.666C28.2009 120.184 28.493 119.75 28.8637 119.39C29.2343 119.029 29.6756 118.751 30.1602 118.572L30.7814 120.103C30.1804 120.338 29.6953 120.798 29.4256 121.389C29.2648 121.766 29.1854 122.175 29.1928 122.589C29.2002 123.002 29.2942 123.411 29.4685 123.788C29.717 124.535 30.2212 125.171 30.8892 125.581C31.1346 125.732 31.4096 125.826 31.6938 125.855C31.978 125.885 32.2639 125.849 32.5304 125.751C33.3739 125.422 33.6962 124.59 33.5157 123.262L33.1078 120.711C32.7742 118.37 33.4543 116.875 35.1345 116.204C35.62 116.006 36.1478 115.93 36.6729 115.983C37.198 116.036 37.7048 116.217 38.1499 116.51C39.236 117.169 40.065 118.189 40.4925 119.391C40.7642 120.03 40.9076 120.715 40.9143 121.406C40.921 122.097 40.7908 122.779 40.5315 123.414C40.3247 123.928 40.0166 124.394 39.6256 124.782C39.2345 125.17 38.7686 125.473 38.2557 125.672L37.6413 124.154C38.2993 123.885 38.8243 123.367 39.1065 122.71C39.3024 122.284 39.4069 121.82 39.4131 121.347C39.4193 120.874 39.3271 120.404 39.1425 119.966C38.8816 119.177 38.3722 118.492 37.6931 118.017C37.4258 117.803 37.1095 117.662 36.7749 117.607C36.4403 117.552 36.0988 117.585 35.7836 117.703C34.8522 118.067 34.4878 118.986 34.6996 120.422L35.1096 123.003Z" fill="white" stroke="white" stroke-width="0.5" stroke-miterlimit="10"/>
<path d="M23.526 107.214L24.9081 106.935L25.857 111.251L36.846 108.905L37.1996 110.479L26.2106 112.826L27.1594 117.142L25.7773 117.42L23.526 107.214Z" fill="white" stroke="white" stroke-width="0.5" stroke-miterlimit="10"/>
<path d="M35.3592 93.5033L35.4378 95.1894L31.6458 96.6389L31.9334 102.108L35.8038 103.226L35.8891 104.924L23.0175 101.337L22.8694 98.2745L35.3592 93.5033ZM30.3563 97.1315L23.639 99.6876L30.5937 101.685L30.3563 97.1315Z" fill="white" stroke="white" stroke-width="0.5" stroke-miterlimit="10"/>
<path d="M36.7119 82.8053L36.4705 84.7391L30.6781 87.7214L30.3289 90.4572L35.6672 91.2315L35.4679 92.8105L22.8723 90.9845L23.6431 84.8099C23.7023 84.3425 23.8524 83.893 24.0847 83.4871C24.3171 83.0813 24.6271 82.7271 24.9972 82.4447C25.3672 82.1624 25.79 81.9574 26.2414 81.8416C26.6927 81.7257 27.1638 81.7013 27.6277 81.7697C28.5885 81.863 29.4825 82.3287 30.1213 83.0688C30.4356 83.4378 30.6684 83.8697 30.8038 84.3349C30.9392 84.8 30.974 85.2875 30.9058 85.764L36.7119 82.8053ZM29.4985 86.0256C29.5638 85.6913 29.5536 85.3452 29.4685 85.0128C29.3835 84.6804 29.2258 84.3704 29.0072 84.1056C28.613 83.7002 28.0938 83.4435 27.5386 83.3794C26.9906 83.2882 26.4311 83.3792 25.9447 83.6385C25.6861 83.7727 25.4662 83.9711 25.3052 84.2153C25.1442 84.4595 25.0473 84.7418 25.0235 85.0361L24.452 89.6318L28.9826 90.29L29.4985 86.0256Z" fill="white" stroke="white" stroke-width="0.5" stroke-miterlimit="10"/>
<path d="M27.5328 69.0441L28.9275 69.4824L27.6728 73.6697L38.4376 77.135L37.9645 78.6674L27.1997 75.2021L25.9451 79.3894L24.5618 78.9445L27.5328 69.0441Z" fill="white" stroke="white" stroke-width="0.5" stroke-miterlimit="10"/>
<path d="M30.5452 65.682L34.3834 67.653L37.5054 61.3015L38.7396 61.9427L35.6176 68.2941L39.4558 70.2652L42.8798 63.3143L44.1072 63.9436L39.9874 72.3351L28.5968 66.4764L32.7235 58.0967L33.9624 58.7193L30.5452 65.682Z" fill="white" stroke="white" stroke-width="0.5" stroke-miterlimit="10"/>
<path d="M45.7089 50.8194C46.4259 51.3291 47.0384 51.9753 47.5112 52.7208C47.984 53.4663 48.3077 54.2963 48.4637 55.1631C48.6101 55.8201 48.6155 56.4987 48.4794 57.153C48.3434 57.8073 48.0691 58.422 47.6751 58.9554L44.6799 63.0143L34.4521 55.2408L37.4589 51.1752C37.8505 50.6453 38.3508 50.2078 38.9265 49.8917C39.5023 49.5755 40.1402 49.3881 40.7979 49.3419C42.5525 49.1661 44.3169 49.6969 45.7089 50.8194ZM46.8062 55.0182C46.3775 53.9013 45.6264 52.9357 44.6515 52.2484C43.7193 51.4967 42.5838 51.0523 41.4021 50.9764C40.8914 50.9351 40.3809 51.0247 39.9181 51.2369C39.4552 51.4491 39.0549 51.777 38.7546 52.1901L36.6935 54.9541L44.3546 60.7938C45.7542 58.9154 46.4735 57.9964 46.485 57.9897C46.7898 57.5697 46.9797 57.0748 47.036 56.5538C47.0924 56.0327 47.0131 55.5035 46.8062 55.0182Z" fill="white" stroke="white" stroke-width="0.5" stroke-miterlimit="10"/>
<path fill-rule="evenodd" clip-rule="evenodd" d="M86.1216 63.5381C82.2163 63.5381 78.4711 65.0636 75.7096 67.779L62.3848 80.8817L62.3848 86.8793C62.3848 91.1165 64.2357 94.9287 67.1859 97.5765C64.2357 100.224 62.3848 104.037 62.3848 108.274L62.3848 114.271L75.7096 127.374C78.4711 130.09 82.2163 131.615 86.1216 131.615C90.4307 131.615 94.3074 129.795 97.0002 126.894C99.6929 129.795 103.57 131.615 107.879 131.615C111.784 131.615 115.529 130.09 118.291 127.374L131.616 114.271L131.616 108.274C131.616 104.037 129.765 100.224 126.814 97.5765C129.765 94.9287 131.616 91.1165 131.616 86.8793L131.616 80.8817L118.291 67.779C115.529 65.0636 111.784 63.5381 107.879 63.5381C103.57 63.5381 99.6929 65.3582 97.0001 68.2592C94.3074 65.3582 90.4307 63.5381 86.1216 63.5381ZM106.967 97.5765C106.801 97.4276 106.638 97.2746 106.479 97.1177L97.0001 87.7969L87.5214 97.1177C87.3618 97.2746 87.199 97.4276 87.033 97.5765C87.199 97.7255 87.3618 97.8785 87.5214 98.0354L97.0002 107.356L106.479 98.0354C106.638 97.8785 106.801 97.7255 106.967 97.5765ZM100.846 114.271L100.846 117.136C100.846 120.955 103.995 124.051 107.879 124.051C109.744 124.051 111.533 123.322 112.851 122.026L123.923 111.138L123.923 108.274C123.923 104.455 120.775 101.359 116.891 101.359C115.026 101.359 113.237 102.087 111.918 103.384L100.846 114.271ZM93.154 114.271L82.0821 103.384C80.7633 102.087 78.9746 101.359 77.1095 101.359C73.2256 101.359 70.0771 104.455 70.0771 108.274L70.0771 111.138L81.1489 122.026C82.4677 123.322 84.2565 124.051 86.1216 124.051C90.0054 124.051 93.154 120.955 93.154 117.136L93.154 114.271ZM93.154 78.0174L93.154 80.8817L82.0821 91.7691C80.7633 93.0659 78.9746 93.7945 77.1095 93.7945C73.2256 93.7945 70.0771 90.6984 70.0771 86.8793L70.0771 84.0149L81.1489 73.1276C82.4677 71.8308 84.2565 71.1022 86.1216 71.1022C90.0054 71.1022 93.154 74.1982 93.154 78.0174ZM111.918 91.7691L100.846 80.8817L100.846 78.0174C100.846 74.1982 103.995 71.1022 107.879 71.1022C109.744 71.1022 111.533 71.8308 112.851 73.1276L123.923 84.0149L123.923 86.8793C123.923 90.6984 120.775 93.7945 116.891 93.7945C115.026 93.7945 113.237 93.0659 111.918 91.7691Z" fill="#B9E800"/>
</svg>
