<svg width="149" height="36" viewBox="0 0 149 36" fill="none" xmlns="http://www.w3.org/2000/svg">
<g clip-path="url(#clip0_2012_139)">
<path d="M16.984 16.1161L15.2236 23.5098H21.2541C20.6704 27.4771 10.8949 29.1874 12.3864 19.581C13.4351 12.8624 21.8459 9.23994 23.7053 14.4409L34.0957 11.8375C32.5989 5.37128 26.8762 2.17224 20.5853 2.17224C11.9286 2.16878 2.19515 8.22355 0.917152 20.1405C-0.155871 30.1371 7.33679 35.6355 16.0358 35.4922C22.2212 35.3859 27.1124 33.1346 29.4962 31.4432L33.1163 16.1161H16.984ZM35.8846 12.6463L30.6589 34.7952H41.4481L46.6715 12.6463H35.8846ZM51.5939 0L43.3857 34.7952H54.1784L62.3796 0H51.5939ZM48.9412 3.18902H38.1343L36.276 11.2889L47.7772 8.42583L48.9412 3.18902ZM137.267 11.1729C132.882 11.1729 129.194 13.1641 126.653 16.2495C127.057 14.6259 127.519 12.7599 127.524 12.7599H123.045L125.32 3.19364H114.541L112.255 12.7734L109.815 12.7757L112.11 3.19364H101.327L99.0723 12.7441L95.6213 12.7634L94.0016 18.6217C92.806 13.5293 88.0131 11.134 83.4991 11.134C77.0983 11.134 72.2055 15.3429 70.1689 21.0178L75.1225 0H64.3345L56.1345 34.7952H66.9202L69.2654 24.8487C68.852 28.8079 70.3546 35.9522 80.0662 35.9522C84.9396 35.9522 91.1813 32.7852 92.6704 28.3906L84.243 26.918C83.2972 28.1413 81.8789 28.8707 80.5031 28.8707C78.189 28.8707 77.5321 26.8934 78.0002 25.1164L93.6749 25.0979C93.8216 24.5632 94.1611 23.9818 94.2809 22.0523C94.3183 21.4651 94.2994 20.9257 94.2693 20.387H97.2796L93.8613 34.8126H104.64L108.061 20.387H110.452L107.065 34.8126H117.851L121.278 20.387H124.199C124.19 20.414 124.184 20.4302 124.184 20.4302C123.661 21.7186 123.284 23.0914 123.089 24.5185L123.087 24.5242C122.544 28.3933 123.835 35.9996 133.851 35.9996C138.723 35.9996 144.965 32.8303 146.456 28.4368L138.024 26.9596C137.082 28.1864 135.659 28.9146 134.287 28.9146C131.97 28.9146 131.311 26.9396 131.783 25.1592L131.777 25.1534L147.455 25.1592C147.584 24.6244 147.923 24.0234 148.045 22.0939C148.559 14.6166 142.704 11.1729 137.267 11.1729ZM85.1566 20.7099L79.1931 20.6702C80.1024 17.5779 85.6285 16.8775 85.1566 20.7099ZM138.938 20.7438L132.972 20.7323C133.884 17.6407 139.406 16.9141 138.938 20.7438Z" fill="#999999"/>
</g>
<defs>
<clipPath id="clip0_2012_139">
<rect width="147.263" height="36" fill="white" transform="translate(0.814453)"/>
</clipPath>
</defs>
</svg>
