<svg width="193" height="34" viewBox="0 0 193 34" fill="none" xmlns="http://www.w3.org/2000/svg">
<g clip-path="url(#clip0_2012_157)">
<path d="M18.9748 0.027832L22.8893 11.939H23.0011L19.0867 0.027832H18.9748ZM36.0587 13.5328L35.9469 13.6166L25.8251 20.9982L29.6837 32.9653L29.7117 33.0492L29.7955 32.9933L25.9649 21.0262L36.0867 13.6166L36.0587 13.5328ZM18.136 26.6183L7.98633 33.9439L8.07021 33.9999L18.1919 26.6463L18.136 26.6183Z" fill="#999999"/>
<path d="M75.9474 17.9561C75.9474 19.1058 75.4509 19.448 73.5876 20.099C72.0956 20.6593 70.947 20.9076 70.6047 20.9076C69.9829 20.9076 69.7044 20.4412 69.7044 19.4783C69.7044 17.1799 70.3553 14.3838 72.7789 14.3838C75.0158 14.3838 75.9474 16.8075 75.9474 17.9561M51.7146 27.9905C51.7146 27.8038 51.6855 27.6808 51.5927 27.5868C51.3433 27.3374 50.4117 27.1831 49.9453 26.7167C49.6053 26.3744 49.3861 25.785 49.3861 24.4183V19.1673C49.3861 18.7625 49.48 18.5153 49.8838 18.5153H55.2276C55.6313 18.5153 55.7241 18.7625 55.7241 19.1673V24.4183C55.7241 25.785 55.5072 26.3744 55.1649 26.7167C54.6986 27.1831 53.7669 27.3374 53.5186 27.5868C53.4247 27.6808 53.3945 27.8038 53.3945 27.9905C53.3945 28.7969 53.5186 29.6067 53.6428 29.7297C53.7669 29.855 53.9537 29.8851 54.3574 29.8851H63.0867C63.4905 29.8851 63.6761 29.855 63.8014 29.7297C63.9255 29.6067 64.0508 28.7969 64.0508 27.9905C64.0508 27.8038 64.0184 27.6808 63.9255 27.5868C63.7086 27.3698 62.7445 27.1831 62.2781 26.7167C61.9381 26.3744 61.7513 25.7224 61.7513 24.6655V10.1584C61.7513 9.41357 61.9381 8.91475 62.2166 8.63738C62.7143 8.13968 63.7086 8.04574 63.9255 7.82764C64.0184 7.73481 64.0508 7.54917 64.0508 7.39371C64.0508 6.8345 63.9255 5.99567 63.8014 5.87153C63.6761 5.74738 63.5531 5.71496 63.0867 5.71496H54.6672C54.3261 5.71496 54.202 5.74733 54.1092 5.84133C54.0163 5.93416 53.9224 6.58621 53.9224 7.42503C53.9224 7.57937 53.9537 7.76613 54.0163 7.82764C54.1707 7.98422 54.948 8.23253 55.2589 8.54345C55.6 8.88569 55.7241 9.2581 55.7241 10.3139V14.4454C55.7241 14.6008 55.5687 14.8178 55.3517 14.8178H49.7596C49.5415 14.8178 49.3861 14.6008 49.3861 14.4454V10.3139C49.3861 9.2581 49.5102 8.88569 49.8524 8.54345C50.1634 8.23253 50.9396 7.98422 51.095 7.82764C51.1576 7.76609 51.1889 7.57937 51.1889 7.42503C51.1889 6.58621 51.095 5.93416 51.0022 5.84133C50.9093 5.74738 50.7841 5.71496 50.443 5.71496H42.0246C41.5582 5.71496 41.4341 5.74734 41.3088 5.87153C41.1858 5.99567 41.0605 6.8345 41.0605 7.39371C41.0605 7.54917 41.0918 7.73481 41.1858 7.82764C41.4028 8.04574 42.397 8.13968 42.8936 8.63738C43.1732 8.91475 43.36 9.41357 43.36 10.1584V24.6655C43.36 25.7224 43.1732 26.3744 42.8321 26.7167C42.3657 27.1831 41.4028 27.3698 41.1858 27.5868C41.0918 27.6808 41.0605 27.8038 41.0605 27.9905C41.0605 28.7969 41.1858 29.6067 41.3088 29.7297C41.4341 29.855 41.5582 29.8851 42.0246 29.8851H50.7539C51.1576 29.8851 51.3433 29.855 51.4686 29.7297C51.5927 29.6067 51.7146 28.7969 51.7146 27.9905M80.5766 27.5555C81.4769 26.6552 81.6961 26.1261 81.6961 25.6911C81.6961 25.2247 81.5709 24.8523 81.1984 24.4798C80.7936 24.0761 80.4536 24.0134 80.1415 24.0134C79.7065 24.0134 79.5197 24.1376 79.2412 24.4183C77.8745 25.785 76.1342 26.5299 74.0215 26.5299C71.8786 26.5299 70.5421 25.1017 70.5421 24.1991C70.5421 23.9519 70.7602 23.7338 71.3183 23.5784C77.2839 21.714 79.7691 20.4725 80.7007 19.5397C81.2286 19.0432 81.4456 18.4526 81.4456 17.9248C81.4456 15.5638 78.0299 11.3708 72.7789 11.3708C70.6047 11.3708 68.3992 12.2387 66.7529 13.8861C65.1066 15.5336 64.081 17.8621 64.081 21.0317C64.081 24.0761 65.044 26.1888 66.7216 27.8664C68.3992 29.544 70.8217 30.3829 73.4634 30.3829C76.1655 30.3829 78.7133 29.4199 80.5766 27.5555M90.3001 12.4255C90.3001 12.0229 90.082 11.8663 89.7409 11.8663H83.7451C83.4028 11.8663 83.2798 11.8663 83.1847 11.9915C83.0617 12.1157 82.9387 12.9545 82.9387 13.5148C82.9387 13.6692 83.0002 13.7922 83.0617 13.8861C83.2798 14.1658 83.7451 14.2586 84.1499 14.6008C84.4284 14.8804 84.5537 15.4709 84.5537 16.3713V24.6655C84.5537 25.7224 84.4284 26.4058 84.1175 26.7167C83.6511 27.1831 82.8749 27.4 82.658 27.617C82.5964 27.6807 82.5651 27.8038 82.5651 28.0219C82.5651 28.8294 82.6893 29.6067 82.8134 29.7297C82.9074 29.8225 83.0617 29.8851 83.4028 29.8851H91.3884C91.7295 29.8851 91.8849 29.8225 91.9778 29.7297C92.1019 29.6067 92.1947 28.8294 92.1947 28.0219C92.1947 27.8038 92.1646 27.6808 92.1019 27.617C91.8849 27.4 91.1703 27.1831 90.7039 26.7167C90.3941 26.4058 90.3001 25.7224 90.3001 24.6655V12.4255V12.4255ZM86.9762 4.59766C85.2683 4.59766 83.8692 5.93416 83.8692 7.6118C83.8692 9.31962 85.2683 10.6561 86.9762 10.6561C88.7164 10.6561 90.1145 9.31962 90.1145 7.6118C90.1145 5.93416 88.7164 4.59766 86.9762 4.59766ZM111.052 16.6822C111.052 13.2028 109.251 11.4323 106.423 11.4323C105.087 11.4323 103.659 11.8663 102.229 12.7375C101.733 13.0484 101.577 13.1413 101.453 13.1413C100.955 13.1413 101.298 11.8663 100.396 11.8663H94.9293C94.587 11.8663 94.4942 11.8663 94.3701 11.9915C94.2146 12.147 94.0905 12.9545 94.0905 13.5148C94.0905 13.6692 94.1218 13.7922 94.2146 13.8861C94.4629 14.1356 94.9293 14.2284 95.3017 14.6008C95.5824 14.8804 95.7043 15.4709 95.7043 16.3713V24.6655C95.7043 25.7224 95.6115 26.4058 95.3017 26.7167C94.8667 27.1506 94.1218 27.4 93.9037 27.617C93.8422 27.6807 93.8097 27.8038 93.8097 28.0219C93.8097 28.8294 93.9037 29.6067 94.0289 29.7297C94.1218 29.8225 94.3074 29.8851 94.6497 29.8851H102.479C102.851 29.8851 102.974 29.8225 103.067 29.7297C103.223 29.5742 103.349 28.8294 103.349 28.0219C103.349 27.8038 103.316 27.6808 103.254 27.617C103.007 27.3698 102.292 27.1506 101.857 26.7167C101.546 26.4058 101.392 25.7224 101.392 24.6655V18.5466C101.392 16.0302 102.787 15.254 103.814 15.254C104.87 15.254 105.46 16.0301 105.46 17.6753V26.2827C105.46 28.5811 106.921 30.1021 109.562 30.1021C112.481 30.1021 113.723 27.9906 113.723 27.5555C113.723 27.1831 113.134 26.4371 112.761 26.4371C112.325 26.4371 111.704 26.9963 111.394 26.9963C111.177 26.9963 111.052 26.8408 111.052 26.3442V16.6822V16.6822ZM168.618 27.5555C169.518 26.6552 169.735 26.1261 169.735 25.6911C169.735 25.2247 169.612 24.8523 169.239 24.4798C168.835 24.0761 168.491 24.0134 168.182 24.0134C167.747 24.0134 167.561 24.1376 167.281 24.4183C165.914 25.785 164.175 26.5299 162.062 26.5299C159.92 26.5299 158.583 25.1017 158.583 24.1991C158.583 23.9519 158.8 23.7338 159.359 23.5784C165.324 21.714 167.809 20.4725 168.742 19.5397C169.27 19.0432 169.487 18.4526 169.487 17.9248C169.487 15.5638 166.07 11.3708 160.82 11.3708C158.643 11.3708 156.439 12.2387 154.792 13.8861C153.146 15.5336 152.121 17.8621 152.121 21.0317C152.121 24.0761 153.084 26.1888 154.761 27.8664C156.439 29.544 158.863 30.3829 161.502 30.3829C164.205 30.3829 166.754 29.4199 168.618 27.5555M163.988 17.9561C163.988 19.1058 163.492 19.448 161.627 20.099C160.137 20.6593 158.987 20.9076 158.643 20.9076C158.024 20.9076 157.743 20.4412 157.743 19.4783C157.743 17.1799 158.396 14.3838 160.82 14.3838C163.056 14.3838 163.988 16.8075 163.988 17.9561M130.437 27.5555C131.337 26.6552 131.556 26.1261 131.556 25.6911C131.556 25.2247 131.431 24.8523 131.059 24.4798C130.655 24.0761 130.314 24.0134 130.003 24.0134C129.566 24.0134 129.381 24.1376 129.102 24.4183C127.735 25.785 125.995 26.5299 123.882 26.5299C121.739 26.5299 120.402 25.1017 120.402 24.1991C120.402 23.9519 120.621 23.7338 121.18 23.5784C127.144 21.714 129.629 20.4725 130.561 19.5397C131.09 19.0432 131.307 18.4526 131.307 17.9248C131.307 15.5638 127.89 11.3708 122.639 11.3708C120.465 11.3708 118.26 12.2387 116.613 13.8861C114.967 15.5336 113.941 17.8621 113.941 21.0317C113.941 24.0761 114.904 26.1888 116.581 27.8664C118.26 29.544 120.683 30.3829 123.324 30.3829C126.026 30.3829 128.574 29.4199 130.437 27.5555M125.809 17.9561C125.809 19.1058 125.311 19.448 123.448 20.099C121.956 20.6593 120.807 20.9076 120.465 20.9076C119.843 20.9076 119.565 20.4412 119.565 19.4783C119.565 17.1799 120.217 14.3838 122.639 14.3838C124.876 14.3838 125.809 16.8075 125.809 17.9561M188.001 16.6822C188.001 13.2028 186.2 11.4323 183.374 11.4323C182.038 11.4323 180.608 11.8663 179.18 12.7375C178.682 13.0484 178.526 13.1413 178.404 13.1413C177.906 13.1413 178.247 11.8663 177.347 11.8663H171.88C171.538 11.8663 171.444 11.8663 171.32 11.9915C171.164 12.147 171.04 12.9545 171.04 13.5148C171.04 13.6692 171.071 13.7922 171.164 13.8861C171.414 14.1356 171.88 14.2284 172.252 14.6008C172.531 14.8804 172.656 15.4709 172.656 16.3713V24.6655C172.656 25.7224 172.562 26.4058 172.252 26.7167C171.816 27.1506 171.071 27.4 170.854 27.617C170.792 27.6807 170.76 27.8038 170.76 28.0219C170.76 28.8294 170.854 29.6067 170.976 29.7297C171.071 29.8225 171.258 29.8851 171.599 29.8851H179.427C179.801 29.8851 179.925 29.8225 180.019 29.7297C180.174 29.5742 180.297 28.8294 180.297 28.0219C180.297 27.8038 180.267 27.6808 180.204 27.617C179.956 27.3698 179.241 27.1506 178.806 26.7167C178.495 26.4058 178.339 25.7224 178.339 24.6655V18.5466C178.339 16.0302 179.738 15.254 180.764 15.254C181.821 15.254 182.41 16.0301 182.41 17.6753V26.2827C182.41 28.5811 183.871 30.1021 186.511 30.1021C189.431 30.1021 190.674 27.9906 190.674 27.5555C190.674 27.1831 190.083 26.4371 189.711 26.4371C189.276 26.4371 188.655 26.9963 188.344 26.9963C188.126 26.9963 188.001 26.8408 188.001 26.3442V16.6822ZM139.228 5.15687H133.264C132.891 5.15687 132.735 5.15686 132.644 5.31343C132.518 5.46778 132.424 6.24509 132.424 6.77298C132.424 6.95864 132.457 7.0828 132.518 7.20694C132.735 7.42503 133.575 7.64201 133.948 8.01556C134.257 8.32648 134.414 8.94719 134.414 11.3071V23.7338C134.414 25.8163 134.197 26.4684 133.948 26.7167C133.513 27.1506 132.768 27.4 132.55 27.617C132.488 27.6807 132.457 27.8038 132.457 28.0219C132.457 28.8294 132.55 29.6067 132.674 29.7297C132.768 29.8225 132.891 29.8851 133.296 29.8851H141.093C141.497 29.8851 141.62 29.8225 141.714 29.7297C141.838 29.6067 141.994 28.8294 141.994 28.0219C141.994 27.8038 141.963 27.6808 141.869 27.617C141.652 27.4 140.906 27.1506 140.502 26.7167C140.162 26.4058 140.036 25.7224 140.036 24.6655V23.9519C140.036 23.5482 140.162 23.4229 140.845 22.7396C141.155 22.4611 141.433 22.2441 141.652 22.2441C141.963 22.2441 142.211 22.4611 145.628 29.3572C145.845 29.7923 145.938 29.8851 146.497 29.8851H151.561C151.934 29.8851 152.059 29.8225 152.152 29.7297C152.276 29.6067 152.4 28.8294 152.4 28.0219C152.4 27.8038 152.37 27.6808 152.306 27.617C152.09 27.4 150.785 27.2446 150.506 26.7167C146.002 19.1058 145.877 18.8564 145.877 18.3912C145.877 17.9874 147.865 16 149.512 14.6948C150.568 13.8559 151.251 14.414 151.251 13.4209C151.251 12.2711 151.096 11.8663 150.878 11.8663H143.361C142.708 11.8663 142.647 12.2387 142.647 13.6379C142.647 14.1031 143.951 14.1657 143.951 14.8178C143.951 15.377 140.782 18.4224 140.254 18.4224C140.068 18.4224 140.036 18.2983 140.036 17.7693V6.027C140.036 5.5293 139.694 5.15687 139.228 5.15687" fill="#999999"/>
<path d="M18.1138 0.284668L22.2378 12.8269L35.4405 12.8732L24.7866 20.6711L28.8223 33.242L18.1138 25.5192L7.40533 33.242L11.4411 20.6711L0.787109 12.8732L13.9898 12.8269L18.1138 0.284668Z" fill="#999999"/>
<path d="M188.017 4.50195C188.539 4.50196 189.04 4.63316 189.52 4.89558C189.999 5.15538 190.376 5.52915 190.649 6.0169C190.925 6.50467 191.062 7.01495 191.062 7.54777C191.062 8.07794 190.927 8.58425 190.657 9.0667C190.389 9.5465 190.014 9.9216 189.531 10.192C189.052 10.4597 188.547 10.5936 188.017 10.5936C187.486 10.5936 186.98 10.4597 186.498 10.192C186.018 9.9216 185.643 9.5465 185.372 9.0667C185.105 8.58425 184.971 8.07794 184.971 7.54777C184.971 7.01495 185.107 6.50467 185.38 6.0169C185.656 5.52915 186.034 5.15538 186.514 4.89558C186.993 4.63316 187.494 4.50196 188.017 4.50195M188.021 5.09838C187.602 5.09838 187.201 5.2031 186.816 5.4125C186.432 5.62192 186.128 5.9228 185.906 6.31513C185.686 6.70746 185.576 7.11833 185.576 7.54777C185.576 7.97456 185.683 8.38147 185.898 8.7685C186.115 9.15552 186.417 9.45772 186.804 9.67509C187.191 9.89246 187.597 10.0011 188.021 10.0011C188.448 10.0011 188.853 9.89246 189.238 9.67509C189.625 9.45772 189.927 9.15552 190.144 8.7685C190.362 8.38147 190.47 7.97456 190.47 7.54777C190.47 7.11833 190.359 6.70746 190.136 6.31513C189.916 5.9228 189.613 5.62192 189.226 5.4125C188.841 5.2031 188.44 5.09838 188.021 5.09838M186.641 9.17805V5.94533H187.297C187.912 5.94533 188.257 5.94802 188.331 5.95339C188.549 5.972 188.717 6.01574 188.836 6.08459C188.958 6.15089 189.059 6.25425 189.138 6.39475C189.22 6.53259 189.262 6.68634 189.262 6.85599C189.262 7.08926 189.185 7.28941 189.031 7.4564C188.88 7.62076 188.666 7.72282 188.391 7.76258C188.489 7.79971 188.564 7.84079 188.617 7.88586C188.671 7.92827 188.743 8.01045 188.836 8.1324C188.86 8.16416 188.94 8.2954 189.075 8.52603L189.456 9.17816H188.645L188.375 8.65327C188.192 8.30071 188.041 8.07937 187.922 7.98924C187.802 7.89646 187.651 7.85006 187.468 7.85006H187.297V9.17816H186.641M187.297 7.34109H187.564C187.943 7.3411 188.177 7.32652 188.268 7.29735C188.36 7.26818 188.433 7.2178 188.486 7.14624C188.539 7.07198 188.566 6.98853 188.566 6.89575C188.566 6.80562 188.539 6.7261 188.486 6.65718C188.436 6.5856 188.363 6.53523 188.268 6.50607C188.172 6.47431 187.938 6.45829 187.564 6.45829H187.297V7.34101" fill="#999999"/>
</g>
<defs>
<clipPath id="clip0_2012_157">
<rect width="191.474" height="34" fill="white" transform="translate(0.787109)"/>
</clipPath>
</defs>
</svg>
