<svg width="133" height="133" viewBox="0 0 133 133" fill="none" xmlns="http://www.w3.org/2000/svg">
<circle cx="66.5" cy="66.5" r="58.5" fill="#601FEB"/>
<g clip-path="url(#clip0_2012_385)">
<path fill-rule="evenodd" clip-rule="evenodd" d="M56.2862 34.8184C52.6196 34.8184 49.1032 36.2394 46.5106 38.7688L34 50.9742V56.561C34 60.5081 35.7378 64.0591 38.5078 66.5257C35.7378 68.9922 34 72.5432 34 76.4903V82.0771L46.5106 94.2826C49.1032 96.812 52.6196 98.233 56.2862 98.233C60.332 98.233 63.9718 96.5376 66.5 93.8352C69.0282 96.5376 72.668 98.233 76.7138 98.233C80.3804 98.233 83.8968 96.812 86.4895 94.2826L99 82.0771V76.4903C99 72.5432 97.2622 68.9922 94.4923 66.5257C97.2622 64.0591 99 60.5081 99 56.561V50.9742L86.4895 38.7688C83.8968 36.2394 80.3804 34.8184 76.7138 34.8184C72.668 34.8184 69.0282 36.5138 66.5 39.2162C63.9718 36.5138 60.332 34.8184 56.2862 34.8184ZM75.8581 66.5257C75.7022 66.3869 75.5493 66.2444 75.3995 66.0982L66.5 57.4158L57.6005 66.0982C57.4507 66.2444 57.2978 66.3869 57.142 66.5257C57.2978 66.6644 57.4507 66.8069 57.6005 66.9531L66.5 75.6355L75.3995 66.9531C75.5493 66.8069 75.7022 66.6644 75.8581 66.5257ZM70.1111 82.0771V84.7453C70.1111 88.3029 73.0673 91.187 76.7138 91.187C78.4649 91.187 80.1443 90.5083 81.3826 89.3002L91.7778 79.1585V76.4903C91.7778 72.9328 88.8216 70.0487 85.1751 70.0487C83.424 70.0487 81.7446 70.7273 80.5064 71.9354L70.1111 82.0771ZM62.8889 82.0771L52.4936 71.9354C51.2554 70.7273 49.576 70.0487 47.8249 70.0487C44.1783 70.0487 41.2222 72.9328 41.2222 76.4903V79.1585L51.6174 89.3002C52.8557 90.5083 54.5351 91.187 56.2862 91.187C59.9327 91.187 62.8889 88.3029 62.8889 84.7453V82.0771ZM62.8889 48.306V50.9742L52.4936 61.1159C51.2554 62.324 49.576 63.0027 47.8249 63.0027C44.1783 63.0027 41.2222 60.1186 41.2222 56.561V53.8928L51.6174 43.7511C52.8557 42.5431 54.5351 41.8644 56.2862 41.8644C59.9327 41.8644 62.8889 44.7484 62.8889 48.306ZM80.5064 61.1159L70.1111 50.9742V48.306C70.1111 44.7484 73.0673 41.8644 76.7138 41.8644C78.4649 41.8644 80.1443 42.5431 81.3826 43.7511L91.7778 53.8928V56.561C91.7778 60.1186 88.8216 63.0027 85.1751 63.0027C83.424 63.0027 81.7446 62.324 80.5064 61.1159Z" fill="white"/>
</g>
<circle cx="66.5" cy="66.5" r="64.5" stroke="#B9E800" stroke-width="4"/>
<defs>
<clipPath id="clip0_2012_385">
<rect width="65" height="65" fill="white" transform="translate(34 34)"/>
</clipPath>
</defs>
</svg>
