<svg width="131" height="448" viewBox="0 0 131 448" fill="none" xmlns="http://www.w3.org/2000/svg">
<path d="M0 444C0 446.209 1.79086 448 4 448C6.20914 448 8 446.209 8 444C8 441.791 6.20914 440 4 440C1.79086 440 0 441.791 0 444ZM125.53 0.46967C125.237 0.176777 124.763 0.176777 124.47 0.46967L119.697 5.24264C119.404 5.53553 119.404 6.01041 119.697 6.3033C119.99 6.59619 120.464 6.59619 120.757 6.3033L125 2.06066L129.243 6.3033C129.536 6.59619 130.01 6.59619 130.303 6.3033C130.596 6.01041 130.596 5.53553 130.303 5.24264L125.53 0.46967ZM65.9994 165.803L65.2633 165.66L65.9994 165.803ZM58.7451 178.827L58.2357 178.276L58.7451 178.827ZM75.7186 115.911L74.9825 115.768L75.7186 115.911ZM74.9825 115.768L65.2633 165.66L66.7356 165.946L76.4548 116.054L74.9825 115.768ZM58.2357 178.276L11.1876 221.825L12.2066 222.926L59.2546 179.377L58.2357 178.276ZM3.25 239.988V444H4.75V239.988H3.25ZM124.25 1V72.5H125.75V1H124.25ZM101 95.75H99.2758V97.25H101V95.75ZM11.1876 221.825C6.12695 226.509 3.25 233.092 3.25 239.988H4.75C4.75 233.51 7.45259 227.326 12.2066 222.926L11.1876 221.825ZM65.2633 165.66C64.3194 170.505 61.8581 174.923 58.2357 178.276L59.2546 179.377C63.1108 175.808 65.7309 171.104 66.7356 165.946L65.2633 165.66ZM124.25 72.5C124.25 85.3406 113.841 95.75 101 95.75V97.25C114.669 97.25 125.75 86.169 125.75 72.5H124.25ZM76.4548 116.054C78.5823 105.133 88.1493 97.25 99.2758 97.25V95.75C87.4314 95.75 77.2473 104.142 74.9825 115.768L76.4548 116.054Z" fill="#E3E3E3"/>
</svg>
