<svg width="468" height="412" viewBox="0 0 468 412" fill="none" xmlns="http://www.w3.org/2000/svg">
<path d="M0 408C0 410.209 1.79086 412 4 412C6.20914 412 8 410.209 8 408C8 405.791 6.20914 404 4 404C1.79086 404 0 405.791 0 408ZM462.03 0.96967C461.737 0.676777 461.263 0.676777 460.97 0.96967L456.197 5.74264C455.904 6.03553 455.904 6.51041 456.197 6.8033C456.49 7.09619 456.964 7.09619 457.257 6.8033L461.5 2.56066L465.743 6.8033C466.036 7.09619 466.51 7.09619 466.803 6.8033C467.096 6.51041 467.096 6.03553 466.803 5.74264L462.03 0.96967ZM357.992 206.692L357.246 206.615L357.992 206.692ZM373.295 186.725L373.563 187.426L373.295 186.725ZM346.212 321.451L345.466 321.374L346.212 321.451ZM129.959 345.501L129.626 344.829L129.959 345.501ZM4.33336 408.672L130.293 346.173L129.626 344.829L3.66664 407.328L4.33336 408.672ZM140.627 343.75H322.337V342.25H140.627V343.75ZM346.958 321.527L358.738 206.769L357.246 206.615L345.466 321.374L346.958 321.527ZM373.563 187.426L446.339 159.6L445.803 158.199L373.027 186.025L373.563 187.426ZM462.25 136.482V1.5H460.75V136.482H462.25ZM446.339 159.6C455.921 155.936 462.25 146.741 462.25 136.482H460.75C460.75 146.119 454.805 154.757 445.803 158.199L446.339 159.6ZM358.738 206.769C359.634 198.04 365.367 190.56 373.563 187.426L373.027 186.025C364.303 189.361 358.2 197.324 357.246 206.615L358.738 206.769ZM322.337 343.75C335.028 343.75 345.662 334.151 346.958 321.527L345.466 321.374C344.249 333.233 334.259 342.25 322.337 342.25V343.75ZM130.293 346.173C133.505 344.579 137.041 343.75 140.627 343.75V342.25C136.81 342.25 133.045 343.133 129.626 344.829L130.293 346.173Z" fill="#E3E3E3"/>
</svg>
