<svg width="756" height="756" viewBox="0 0 756 756" fill="none" xmlns="http://www.w3.org/2000/svg">
<path fill-rule="evenodd" clip-rule="evenodd" d="M49.0432 209.488C20.2442 238.287 3.78689 277.067 3.29021 317.297L0.892952 511.424L44.7737 555.305C75.7754 586.307 117.316 600.548 158.445 598.165C156.062 639.294 170.303 680.835 201.305 711.836L245.186 755.717L439.313 753.32C479.544 752.824 518.323 736.366 547.122 707.567C578.899 675.79 594.171 633.886 592.803 592.803C633.885 594.171 675.79 578.899 707.567 547.122C736.366 518.323 752.824 479.544 753.32 439.313L755.717 245.186L711.836 201.305C680.834 170.304 639.294 156.061 598.165 158.445C600.549 117.316 586.306 75.7756 555.305 44.7739L511.424 0.893136L317.297 3.29026C277.067 3.78706 238.287 20.2444 209.488 49.0434C177.711 80.8201 162.439 122.725 163.807 163.808C122.725 162.439 80.82 177.711 49.0432 209.488ZM451.806 304.804C449.493 304.938 447.172 305.02 444.847 305.049L306.753 306.754L305.048 444.847C305.02 447.172 304.938 449.493 304.804 451.806C307.117 451.672 309.438 451.59 311.763 451.561L449.856 449.857L451.561 311.763C451.59 309.438 451.672 307.117 451.806 304.804ZM528.814 472.089L549.771 493.046C577.713 520.988 623.584 520.422 652.225 491.781C665.979 478.027 673.839 459.505 674.076 440.291L676.068 278.987L655.111 258.03C627.169 230.088 581.297 230.654 552.656 259.295C538.903 273.049 531.043 291.57 530.805 310.784L528.814 472.089ZM472.089 528.814L310.784 530.805C291.57 531.043 273.049 538.902 259.295 552.656C230.654 581.297 230.088 627.168 258.031 655.111L278.987 676.067L440.291 674.076C459.505 673.839 478.027 665.979 491.781 652.225C520.421 623.585 520.988 577.713 493.045 549.771L472.089 528.814ZM206.84 263.565L227.796 284.521L225.805 445.826C225.567 465.04 217.708 483.561 203.954 497.315C175.313 525.956 129.442 526.522 101.499 498.579L80.5427 477.623L82.5339 316.319C82.7713 297.105 90.6317 278.584 104.385 264.83C133.026 236.189 178.897 235.622 206.84 263.565ZM445.826 225.805L284.521 227.796L263.565 206.84C235.622 178.897 236.189 133.026 264.83 104.386C278.584 90.6319 297.105 82.7715 316.319 82.5341L477.623 80.5423L498.58 101.499C526.522 129.441 525.956 175.313 497.315 203.954C483.561 217.707 465.04 225.567 445.826 225.805Z" fill="url(#paint0_linear_2050_438)" fill-opacity="0.8"/>
<defs>
<linearGradient id="paint0_linear_2050_438" x1="169.146" y1="169.147" x2="926.466" y2="926.466" gradientUnits="userSpaceOnUse">
<stop stop-color="#EFEFEF" stop-opacity="0"/>
<stop offset="0.189145" stop-color="#EFEFEF" stop-opacity="0.48"/>
<stop offset="1" stop-color="#EFEFEF" stop-opacity="0.56"/>
</linearGradient>
</defs>
</svg>
