<svg width="96" height="38" viewBox="0 0 96 38" fill="none" xmlns="http://www.w3.org/2000/svg">
<g clip-path="url(#clip0_2012_163)">
<path d="M79.4022 20.2858C79.3256 24.5135 80.2387 26.7528 83.7238 26.7528C87.2032 26.7528 87.7025 22.9382 87.7025 20.0355C87.7025 17.1308 87.0422 14.311 83.3867 14.311C81.1441 14.311 79.4884 16.0536 79.4022 20.2858ZM72.3516 37.9526V9.33495H79.4884C79.4884 9.33495 79.4884 9.74936 79.4884 10.4958C79.4884 12.0442 80.1129 11.4057 80.6161 10.8023C80.7004 10.7014 82.2909 8.75453 85.8731 8.75453C89.4444 8.75453 95.0003 11.2422 95.0003 20.0355C95.0003 26.8371 91.6856 31.8132 85.9612 31.8132C82.8069 31.8132 80.9832 30.5712 80.5663 30.07C80.1487 29.5757 79.5689 29.4895 79.5689 30.07C79.5689 30.6517 79.5689 37.9526 79.5689 37.9526H72.3516" fill="#999999"/>
<path d="M17.1909 0.0470917H24.9057C24.9057 0.0470917 24.9057 16.8009 24.9057 20.286C24.9057 23.7672 23.4109 31.0688 12.7123 31.0688C2.01241 31.0688 0.851562 24.2634 0.851562 20.4507V16.7185H8.31727C8.31727 16.7185 8.31727 18.1284 8.31727 20.3664C8.31727 22.6058 9.81079 24.6784 12.6293 24.6784C15.449 24.6784 17.1909 23.1032 17.1909 20.4507C17.1909 17.7963 17.1909 0.0470917 17.1909 0.0470917Z" fill="#999999"/>
<path d="M41.039 17.2156C41.039 15.1398 39.88 13.1495 37.2257 13.1495C34.6543 13.1495 33.7412 14.9725 33.7412 17.2156H41.039ZM36.4818 8.50544C42.5402 8.50544 47.8464 10.8271 47.8464 21.5276H33.4979C33.4979 24.9285 34.9065 26.339 37.3949 26.339C39.8839 26.339 40.7127 24.3468 40.7127 24.3468H47.7653C47.7653 27.4168 43.5344 31.5641 37.1459 31.4817C29.8487 31.4817 26.2812 26.0899 26.2812 20.5322C26.2812 14.9725 29.4311 8.50544 36.4818 8.50544" fill="#999999"/>
<path d="M63.9764 17.2156C63.9764 15.1398 62.8162 13.1495 60.1619 13.1495C57.5918 13.1495 56.6768 14.9725 56.6768 17.2156H63.9764ZM59.4192 8.50544C65.477 8.50544 70.7819 10.8271 70.7819 21.5276H56.4341C56.4341 24.9285 57.844 26.339 60.3343 26.339C62.8207 26.339 63.6508 24.3468 63.6508 24.3468H70.7034C70.7034 27.4168 66.4718 31.5641 60.0852 31.4817C52.7843 31.4817 49.2168 26.0899 49.2168 20.5322C49.2168 14.9725 52.3705 8.50544 59.4192 8.50544" fill="#999999"/>
<path d="M90.2766 34.5219C90.2766 33.3885 91.1993 32.4677 92.3365 32.4677C93.4699 32.4677 94.3907 33.3885 94.3907 34.5219C94.3907 35.6534 93.4699 36.5799 92.3365 36.5799C91.1993 36.5799 90.2766 35.6534 90.2766 34.5219ZM90.0391 34.5219C90.0391 35.79 91.0658 36.8193 92.3365 36.8193C93.5989 36.8193 94.6314 35.79 94.6314 34.5219C94.6314 33.2538 93.5989 32.2245 92.3365 32.2245C91.0658 32.2245 90.0391 33.2538 90.0391 34.5219" fill="#999999"/>
<path d="M93.2568 35.6968L92.7798 34.5704C92.9311 34.518 92.9816 34.481 93.062 34.3948C93.1668 34.2824 93.2325 34.1049 93.2325 33.944C93.2325 33.5379 92.9203 33.2614 92.4676 33.2614H91.5098V35.6968H91.7939V34.6419H92.4861L92.9407 35.6968H93.2568ZM91.7862 34.3948V33.5264H92.4618C92.744 33.5264 92.9235 33.6873 92.9235 33.9363C92.9235 34.2192 92.7332 34.3948 92.4222 34.3948H91.7862Z" fill="#999999"/>
</g>
<defs>
<clipPath id="clip0_2012_163">
<rect width="94.2437" height="38" fill="white" transform="translate(0.804688)"/>
</clipPath>
</defs>
</svg>
