<svg width="126" height="44" viewBox="0 0 126 44" fill="none" xmlns="http://www.w3.org/2000/svg">
<g clip-path="url(#clip0_2012_144)">
<path d="M120.508 14.6196C118.304 14.6157 116.304 16.3936 113.817 18.4636C111.534 20.3602 106.864 25.1551 102.604 27.8865C103.791 26.0212 106.653 21.9907 107.084 20.0994C107.536 18.1167 106.083 17.3471 104.083 18.5732C101.905 19.9167 99.8273 26.3734 96.7503 26.3734C96.1894 26.3734 95.7981 26.0995 95.8034 25.4734C95.8164 23.582 98.7447 19.8124 104.001 17.7385C104.817 17.4124 105.13 16.8867 105.133 16.4341C105.133 16.2906 105.11 15.3331 103.495 15.3331C98.3038 15.3331 91.2967 21.392 90.3145 26.0369C89.3036 27.0543 87.484 28.5622 85.1779 29.5457C87.7814 25.8582 90.0224 22.8933 91.1976 19.815C92.5541 16.228 90.6236 15.7583 88.641 16.8071C86.7105 17.8271 85.3539 20.6589 84.78 21.7376C84.2191 22.8072 83.7365 24.1768 82.0409 25.5399C80.3452 26.9029 78.5843 26.6747 79.826 24.0138C80.9387 21.6372 83.4391 19.1446 85.5913 17.9967C86.1 17.7228 86.5475 17.561 86.5305 16.8749C86.5044 15.7857 85.2444 15.0305 83.4482 15.8053C81.0091 16.8618 79.8378 17.5662 77.7703 17.5662C76.1294 17.5662 75.279 17.1228 74.5785 16.8319C73.6394 16.4328 72.9481 16.571 72.5829 16.6884C72.2541 16.8005 71.735 17.1188 71.3006 17.5949C70.9563 17.9732 70.6654 18.5928 70.5963 18.9906C70.1137 21.8994 67.5675 27.1169 65.6971 27.1169C65.0514 27.1169 64.3405 26.9343 64.5231 25.4473C64.8231 23.0133 67.7579 19.7237 68.4362 19.0689C69.1145 18.4088 70.3928 17.9602 70.4841 17.2297C70.5624 16.6167 70.1893 15.9319 68.984 15.9319C65.0279 15.9319 59.7412 21.4154 59.2143 26.3408C58.6012 26.9147 57.863 27.4756 57.019 27.4756C55.1929 27.4756 54.6738 25.7669 54.8042 24.4103C59.6095 20.0746 68.7245 10.4078 68.9997 3.52725C69.0649 1.88374 68.264 1.06196 66.9179 1.06196C63.5265 1.06196 58.7734 6.01857 55.8177 9.84039C52.1811 14.5466 49.9428 20.2297 49.1523 24.5381C46.4914 26.8468 45.4114 27.0008 44.2531 27.0008C42.6435 27.0008 42.0813 25.836 42.1322 24.9203C46.6192 20.8428 54.4194 11.1278 54.576 6.32644C54.6229 4.90467 53.8194 4.23421 52.3806 4.23421C49.3219 4.23421 44.9901 7.46256 41.8752 11.7135C38.7643 15.9658 36.7464 20.9668 36.1751 25.5008C33.8468 27.593 32.1054 28.0182 30.6706 28.0182C29.8032 28.0182 29.1667 27.4078 29.0141 27.1521C31.075 25.9625 35.7707 22.9781 35.7707 18.5302C35.7707 16.3206 34.2798 15.3345 32.7968 15.3345C29.0245 15.3345 23.0922 20.0354 23.1313 26.5234C23.1313 26.6382 23.1496 27.0373 23.1705 27.1821C21.4617 27.7691 20.2852 28.3691 20.5565 29.5978C20.8043 30.7117 22.187 30.6544 23.987 30.0191C24.4018 30.7887 26.1653 32.0578 28.6567 32.0578C32.0298 32.0578 34.6046 30.4574 36.6394 28.7186C37.4938 30.7209 39.6004 31.7709 41.8048 31.7709C44.4788 31.7709 47.1266 29.9578 49.2136 28.3143C49.4562 29.8495 51.0176 32.2405 53.7189 32.2405C56.1842 32.2405 58.0678 30.8057 59.5561 29.2535C59.9474 30.8187 61.3822 32.0578 63.2526 32.0578C69.4915 32.0578 72.9898 23.2272 73.7959 20.0576C73.9003 19.6532 74.2864 19.5619 74.5525 19.6571C75.7134 20.0615 76.282 20.2623 77.7481 20.0954C75.3742 21.9606 73.282 25.1433 73.282 27.469C73.282 29.7908 75.2946 30.8695 76.7647 30.8695C78.2386 30.8695 80.1873 29.9174 81.4695 28.7174C81.1304 29.4009 80.6739 30.4456 79.9435 31.1826C78.5999 31.5517 74.6607 32.9735 72.1563 34.4957C69.7823 35.9436 67.4866 38.2445 67.4866 40.8924C67.4866 42.3089 68.6475 43.9707 71.3776 43.9707C75.9664 43.9707 79.1777 40.9707 83.5083 33.0923C87.0953 31.5883 89.2475 30.1835 90.6562 28.99C91.2745 30.0674 92.4642 30.5683 93.6564 30.5683C95.4173 30.5683 96.4738 30.0595 97.8956 29.0382C97.6999 29.5208 97.3869 30.246 96.9042 30.8904C94.3398 31.9574 91.2602 33.3687 89.6832 34.3209C85.4766 36.8566 84.544 39.1301 84.544 40.9211C84.544 42.0167 85.4831 43.9212 88.3175 43.9212C94.4481 43.9212 98.2438 36.2971 100.717 31.9861C102.53 31.0248 105.12 29.2417 107.783 27.1991C107.691 27.5252 107.648 27.8643 107.648 28.2491C107.648 30.1626 109.383 31.9626 112.227 31.9626C117.845 31.9626 119.593 27.8226 119.523 23.3538C119.497 21.8929 119.282 20.7293 119.263 20.2102C119.21 18.8458 119.664 18.1102 120.906 18.1102C122.158 18.1102 123.006 17.8884 123.006 16.8188C123.006 15.3384 121.95 14.6666 120.515 14.6666M63.9048 6.73605C64.0653 6.73605 64.1318 6.87949 64.1265 7.10123C64.0783 8.86214 59.5482 15.9775 55.3573 20.1189C57.8799 12.7035 62.9096 6.73605 63.9009 6.73605M28.0801 24.5851C28.2628 21.4246 30.7671 18.9893 31.7559 18.9893C32.1211 18.9893 32.2907 19.198 32.2907 19.6324C32.2907 20.7593 30.7776 23.115 28.0867 24.5851M49.3741 9.34997C49.5632 9.34997 49.6441 9.49736 49.6376 9.73737C49.605 11.0391 46.344 17.0158 42.1583 21.1572C44.3574 14.4396 47.9366 9.3526 49.3714 9.3526M72.2724 39.9532C71.9515 39.9532 71.7898 39.7445 71.7898 39.4367C71.7898 37.5153 76.055 35.2445 78.292 34.424C77.3268 35.9867 73.7841 39.9546 72.2685 39.9546M89.3428 40.0589C89.0297 40.0589 88.9123 39.8711 88.9123 39.5633C88.9123 37.8676 92.7785 35.2405 95.0129 34.4214C93.852 36.4301 90.6237 40.0563 89.3389 40.0563M112.642 27.8474C112.373 27.8474 111.963 27.7821 111.963 26.8782C111.963 26.2208 111.65 25.4929 110.505 25.4929C110.348 25.4929 110.179 25.506 109.986 25.5386C112.438 23.5951 114.355 21.4559 116.142 20.0081C115.777 24.4299 114.721 27.8474 112.634 27.8474" fill="#999999"/>
<path d="M110.486 13.8008C110.404 14.5769 109.539 14.9252 109.464 15.6191C109.421 16.0235 109.706 16.2908 110.21 16.2843C111.496 16.2712 114.945 14.2808 115.245 11.1842C115.396 9.62288 114.42 8.2676 112.718 8.2676C110.996 8.2676 109.439 9.88244 109.294 11.239C109.155 12.5655 110.566 13.0455 110.486 13.8008M20.8536 35.6386C19.7488 35.5812 19.2309 34.2626 19.2309 32.6647C19.2309 30.9077 20.3657 27.1015 20.8158 25.3002C21.2723 23.4832 21.4679 20.5444 19.8244 18.8591C26.0724 16.3456 35.3204 7.78501 36.5074 5.91584C37.6944 4.04406 37.9291 1.66358 36.2856 0.473987C34.6552 -0.715604 31.9812 0.836629 30.4029 3.10885C26.0594 9.37246 23.4375 12.4299 20.4766 15.0048C18.1679 17.0135 17.0461 17.0461 15.9374 17.2C15.9374 17.2 20.2027 10.2176 21.794 8.12151C23.7049 5.6145 21.3505 4.67801 19.0679 6.26152C18.6048 6.5837 14.9956 9.07899 10.6234 11.3356C2.83624 15.353 0.961835 17.2052 0.961835 19.6157C0.961835 20.6853 1.70531 22.0314 3.27057 22.0314C6.32281 22.0314 9.34115 16.5765 10.819 15.2187C11.3929 14.6839 12.7273 13.5229 13.2451 13.5229C13.4147 13.5229 13.5321 13.6273 13.5321 13.9534C13.5321 14.9969 11.5064 17.9578 8.36678 21.3492C3.8119 26.2667 0.0839844 28.2493 0.0839844 31.3929C0.0839844 33.4408 1.62314 34.5495 3.28752 34.5495C6.79629 34.5495 9.14418 29.8667 10.5477 27.545C11.1086 26.6189 14.2039 20.8496 14.8561 19.6014C15.5343 19.9627 15.9517 20.7153 15.73 22.244C15.3126 24.9963 12.8604 28.3302 12.8604 32.979C12.8604 36.7747 16.3691 37.9657 17.7778 37.9683C19.0796 37.9683 20.8014 37.4661 21.2292 36.163C21.2814 35.9674 21.2162 35.6373 20.8692 35.6151M124.591 14.0539C125.321 14.0539 125.791 14.5234 125.791 15.2578C125.791 15.9882 125.321 16.4578 124.591 16.4578C123.854 16.4578 123.387 15.9882 123.387 15.2578C123.387 14.5195 123.851 14.0473 124.589 14.0473M124.589 16.1604C125.144 16.1604 125.495 15.8043 125.495 15.2473C125.495 14.6904 125.142 14.3395 124.589 14.3395C124.031 14.3395 123.68 14.6916 123.68 15.2447C123.68 15.7978 124.032 16.1578 124.585 16.1578M124.664 14.6317C124.85 14.6317 125.06 14.723 125.06 14.9943C125.06 15.1743 124.943 15.2812 124.812 15.3334C124.896 15.4508 124.961 15.6178 125.06 15.6178H125.129C125.142 15.6308 125.155 15.6569 125.155 15.7091C125.155 15.7926 125.094 15.8525 124.973 15.8525C124.738 15.8525 124.712 15.5734 124.555 15.3699H124.416V15.8265C124.39 15.8448 124.325 15.8525 124.272 15.8525C124.194 15.8525 124.129 15.8395 124.129 15.7221V14.6474C124.155 14.6343 124.207 14.6291 124.27 14.6291H124.661L124.664 14.6317ZM124.42 14.8534V15.1534H124.598C124.724 15.1534 124.794 15.0947 124.794 14.9969C124.794 14.9056 124.729 14.8534 124.625 14.8534H124.421H124.42Z" fill="#999999"/>
</g>
<defs>
<clipPath id="clip0_2012_144">
<rect width="125.839" height="44" fill="white"/>
</clipPath>
</defs>
</svg>
