<svg width="178" height="32" viewBox="0 0 178 32" fill="none" xmlns="http://www.w3.org/2000/svg">
<g clip-path="url(#clip0_2012_148)">
<path d="M96.5996 29.847H119.422V27.0593H100.512V18.1389H114.716V15.3183H100.512V7.09984H119.422V4.32227H96.5996V29.847Z" fill="#999999"/>
<path d="M108.461 0.196289L105.371 3.66759L115.071 0.196289H108.461Z" fill="#999999"/>
<path d="M157.737 27.0593V4.32227H154.17V29.847H177.242V27.0593H157.737Z" fill="#999999"/>
<path d="M134.211 4.32227L121.232 29.847H125.619L128.94 23.2404H144.506L147.854 29.847H152.196L139.207 4.32227H134.211ZM130.583 20.0411L136.698 7.84928L142.886 20.0411H130.583Z" fill="#999999"/>
<path d="M84.2154 19.1738C90.063 17.6134 90.6312 13.2625 90.6016 11.707C90.2525 7.14715 87.1802 4.32227 81.6598 4.32227H65.5723V29.847H69.2397V19.1397H79.713L87.4181 29.847H92.0405C92.0403 29.847 86.4956 22.6409 84.2154 19.1738ZM81.1591 16.1239H69.2397V7.34346H81.5745C84.4144 7.34346 86.0119 8.66924 86.5873 10.3534C86.968 11.5078 86.7239 13.0233 86.0941 14.055C85.0632 15.7608 83.105 16.1239 81.1591 16.1239Z" fill="#999999"/>
<path d="M43.5335 0C33.181 0 26.125 7.29919 26.125 16.1337C26.125 25.4343 33.9194 32 43.5335 32C53.1411 32 60.9324 25.5281 60.9324 16.1337C60.9324 7.29919 53.7891 0 43.5335 0ZM43.4092 28.8316C36.2469 28.8316 30.3455 23.0759 30.3455 16.1424C30.3455 9.21834 35.9683 3.187 43.6869 3.187C51.2142 3.187 56.7475 9.21834 56.7475 16.1424C56.7475 23.0757 50.5685 28.8316 43.4092 28.8316Z" fill="#999999"/>
<path d="M16.8887 13.352H19.5349L24.3382 4.32227H20.4729L16.8887 13.352Z" fill="#999999"/>
<path d="M3.95205 27.0593V4.32227H0.382812V29.847H23.4539V27.0593H3.95205Z" fill="#999999"/>
</g>
<defs>
<clipPath id="clip0_2012_148">
<rect width="176.859" height="32" fill="white" transform="translate(0.382812)"/>
</clipPath>
</defs>
</svg>
