<svg width="30" height="30" viewBox="0 0 30 30" fill="none" xmlns="http://www.w3.org/2000/svg">
<g clip-path="url(#clip0_2050_424)">
<path fill-rule="evenodd" clip-rule="evenodd" d="M10.2859 0.37793C8.59365 0.37793 6.97073 1.03379 5.77411 2.20122L0 7.83446V10.413C0 12.2347 0.80208 13.8737 2.08051 15.0121C0.80208 16.1505 0 17.7894 0 19.6111V22.1897L5.77411 27.8229C6.97073 28.9904 8.59365 29.6462 10.2859 29.6462C12.1532 29.6462 13.8332 28.8637 15 27.6165C16.1668 28.8637 17.8468 29.6462 19.7141 29.6462C21.4064 29.6462 23.0293 28.9904 24.2259 27.8229L30 22.1897V19.6111C30 17.7894 29.198 16.1505 27.9195 15.0121C29.198 13.8737 30 12.2347 30 10.413V7.83446L24.2259 2.20122C23.0293 1.03379 21.4064 0.37793 19.7141 0.37793C17.8468 0.37793 16.1668 1.16044 15 2.40769C13.8332 1.16044 12.1532 0.37793 10.2859 0.37793ZM19.3191 15.0121C19.2472 14.948 19.1766 14.8823 19.1075 14.8148L15 10.8075L10.8926 14.8148C10.8234 14.8823 10.7528 14.948 10.6809 15.0121C10.7528 15.0761 10.8234 15.1419 10.8926 15.2093L15 19.2166L19.1075 15.2093C19.1766 15.1419 19.2472 15.0761 19.3191 15.0121ZM16.6667 22.1897V23.4211C16.6667 25.0631 18.0311 26.3942 19.7141 26.3942C20.5223 26.3942 21.2974 26.081 21.8689 25.5234L26.6667 20.8426V19.6111C26.6667 17.9692 25.3023 16.6381 23.6193 16.6381C22.8111 16.6381 22.036 16.9513 21.4645 17.5089L16.6667 22.1897ZM13.3333 22.1897L8.53553 17.5089C7.96403 16.9513 7.18893 16.6381 6.38071 16.6381C4.69769 16.6381 3.33333 17.9692 3.33333 19.6111V20.8426L8.13113 25.5234C8.70263 26.081 9.47775 26.3942 10.2859 26.3942C11.9689 26.3942 13.3333 25.0631 13.3333 23.4211V22.1897ZM13.3333 6.60301V7.83446L8.53553 12.5153C7.96403 13.0728 7.18893 13.3861 6.38071 13.3861C4.69769 13.3861 3.33333 12.0549 3.33333 10.413V9.18153L8.13113 4.50075C8.70263 3.94319 9.47775 3.62996 10.2859 3.62996C11.9689 3.62996 13.3333 4.96104 13.3333 6.60301ZM21.4645 12.5153L16.6667 7.83446V6.60301C16.6667 4.96104 18.0311 3.62996 19.7141 3.62996C20.5223 3.62996 21.2974 3.94319 21.8689 4.50075L26.6667 9.18153V10.413C26.6667 12.0549 25.3023 13.3861 23.6193 13.3861C22.8111 13.3861 22.036 13.0728 21.4645 12.5153Z" fill="#B9E800"/>
</g>
<defs>
<clipPath id="clip0_2050_424">
<rect width="30" height="30" fill="white"/>
</clipPath>
</defs>
</svg>
