<svg width="133" height="36" viewBox="0 0 133 36" fill="none" xmlns="http://www.w3.org/2000/svg">
<g clip-path="url(#clip0_2012_141)">
<path d="M18.3535 33.6795C16.3539 34.0314 14.3192 34.1369 12.2144 34.4179L5.79433 15.5743V35.2266C3.79477 35.4375 1.97059 35.7188 0.0761719 36V0H5.40867L12.7054 20.4261V0H18.3535V33.6795ZM29.4041 13.1836C31.5793 13.1836 34.912 13.0781 36.9116 13.0781V18.703C34.4207 18.703 31.5091 18.703 29.4041 18.8085V27.1758C32.7019 26.9649 35.9995 26.6834 39.3321 26.5779V31.9917L23.791 33.2224V0H39.3321V5.62501H29.4041V13.1836V13.1836ZM60.2054 5.62514H54.382V31.5001C52.4876 31.5001 50.5932 31.5001 48.7692 31.5702V5.62514H42.9458V0H60.2057L60.2054 5.62514V5.62514ZM69.3265 12.797H77.0094V18.4219H69.3265V31.1837H63.8184V0H79.5002V5.62501H69.3265V12.797V12.797ZM88.6212 26.2617C91.8137 26.3318 95.041 26.5783 98.1634 26.7538V32.3086C93.1469 31.992 88.1302 31.676 83.0084 31.5702V0H88.6212V26.2617ZM102.899 32.6953C104.688 32.8009 106.583 32.9064 108.407 33.1171V0H102.899V32.6953V32.6953ZM132.999 0L125.878 17.1211L132.999 36C130.894 35.7188 128.789 35.332 126.684 34.9804L122.65 24.5744L118.546 34.1369C116.511 33.785 114.546 33.6795 112.512 33.3983L119.739 16.91L113.213 0H119.247L122.931 9.45705L126.86 0H132.999V0Z" fill="#999999"/>
</g>
<defs>
<clipPath id="clip0_2012_141">
<rect width="132.923" height="36" fill="white" transform="translate(0.0761719)"/>
</clipPath>
</defs>
</svg>
