<svg width="556" height="316" viewBox="0 0 556 316" fill="none" xmlns="http://www.w3.org/2000/svg">
<path d="M0.5 4C0.5 6.20914 2.29086 8 4.5 8C6.70914 8 8.5 6.20914 8.5 4C8.5 1.79086 6.70914 0 4.5 0C2.29086 0 0.5 1.79086 0.5 4ZM555.049 310.011C555.331 309.708 555.314 309.233 555.011 308.951L550.069 304.353C549.766 304.071 549.291 304.088 549.009 304.391C548.727 304.694 548.744 305.169 549.047 305.451L553.44 309.538L549.353 313.931C549.071 314.234 549.088 314.709 549.391 314.991C549.694 315.273 550.169 315.256 550.451 314.953L555.049 310.011ZM380.764 303.08L381.412 302.703L380.764 303.08ZM402.365 314.982L402.392 315.732L402.365 314.982ZM4.5 4.75H192.707V3.25H4.5V4.75ZM212.796 16.295L380.116 303.458L381.412 302.703L214.092 15.5399L212.796 16.295ZM402.392 315.732L554.527 310.25L554.473 308.75L402.338 314.233L402.392 315.732ZM380.116 303.458C384.71 311.343 393.271 316.061 402.392 315.732L402.338 314.233C393.77 314.542 385.728 310.11 381.412 302.703L380.116 303.458ZM192.707 4.75C200.981 4.75 208.631 9.14655 212.796 16.295L214.092 15.5399C209.658 7.9302 201.514 3.25 192.707 3.25V4.75Z" fill="#383838"/>
</svg>
