<svg width="254" height="254" viewBox="0 0 254 254" fill="none" xmlns="http://www.w3.org/2000/svg">
<circle cx="127" cy="127" r="123.5" fill="#601FEB" stroke="#111111" stroke-width="7"/>
<path d="M111.519 42.9618L112.012 44.7763L101.599 47.4089L97.2086 30.8244L99.2429 30.3215L103.16 45.1229L111.519 42.9618Z" fill="white" stroke="white" stroke-width="0.5" stroke-miterlimit="10"/>
<path d="M113.354 29.2481L113.952 34.9887L123.34 34.1441L123.53 36.0068L114.158 36.8424L114.757 42.5831L125.021 41.6525L125.211 43.5151L112.827 44.6208L111.06 27.5919L123.429 26.4952L123.626 28.3332L113.354 29.2481Z" fill="white" stroke="white" stroke-width="0.5" stroke-miterlimit="10"/>
<circle cx="76.1005" cy="50.067" r="4.37087" transform="rotate(-33.7889 76.1005 50.067)" fill="#AAE500"/>
<circle cx="179.809" cy="203.841" r="4.37087" transform="rotate(-33.7889 179.809 203.841)" fill="#AAE500"/>
<path d="M140.047 27.5193L139.93 29.4547L134.171 29.0649L133.282 44.1648L131.139 44.0167L132.029 28.9169L126.233 28.4642L126.365 26.5199L140.047 27.5193Z" fill="white" stroke="white" stroke-width="0.5" stroke-miterlimit="10"/>
<path d="M145.296 28.6651L142.797 33.8858L141.278 33.6081L143.195 28.3041L145.296 28.6651Z" fill="white" stroke="white" stroke-width="0.5" stroke-miterlimit="10"/>
<path d="M150.245 39.0524C147.716 37.595 146.773 35.7472 147.412 33.4685C147.599 32.817 147.936 32.2216 148.396 31.7303C148.855 31.239 149.425 30.8654 150.057 30.6396C151.489 30.0814 153.077 30.0476 154.549 30.544C155.361 30.7406 156.126 31.1053 156.795 31.6149C157.465 32.1244 158.025 32.7676 158.438 33.5034C158.785 34.1133 159.004 34.7865 159.083 35.4811C159.162 36.1757 159.099 36.8769 158.897 37.5409L156.801 36.904C156.924 36.4909 156.964 36.0561 156.92 35.6243C156.875 35.1926 156.747 34.7726 156.542 34.3882C156.282 33.9009 155.924 33.4733 155.49 33.1338C155.056 32.7943 154.557 32.5508 154.027 32.4194C153.051 32.0549 151.985 32.0528 151.02 32.4135C150.655 32.5511 150.329 32.7736 150.068 33.0631C149.806 33.3525 149.616 33.7011 149.514 34.0807C149.185 35.257 149.785 36.2959 151.331 37.2288L154.356 38.9037C157.037 40.5315 158.056 42.5105 157.413 44.8408C157.206 45.5164 156.843 46.1301 156.353 46.6318C155.863 47.1335 155.26 47.5088 154.595 47.7272C153.028 48.2984 151.306 48.3078 149.714 47.7539C148.829 47.5099 148 47.0881 147.276 46.514C146.552 45.94 145.949 45.2256 145.502 44.4141C145.135 43.7563 144.906 43.0312 144.829 42.2846C144.752 41.538 144.829 40.786 145.055 40.0761L147.126 40.7061C146.87 41.6263 146.978 42.6167 147.426 43.471C147.712 44.0373 148.111 44.5394 148.597 44.9454C149.083 45.3513 149.645 45.6523 150.248 45.8293C151.282 46.2216 152.41 46.2571 153.454 45.9301C153.89 45.8223 154.29 45.6035 154.615 45.2944C154.941 44.9853 155.181 44.5961 155.314 44.1635C155.675 42.864 155.021 41.7307 153.333 40.7321L150.245 39.0524Z" fill="white" stroke="white" stroke-width="0.5" stroke-miterlimit="10"/>
<path d="M171.371 52.8777C171.359 53.6698 171.538 54.4564 171.892 55.1695C172.246 55.8827 172.766 56.501 173.406 56.9711C173.919 57.351 174.501 57.6237 175.118 57.7727C175.734 57.9218 176.372 57.9442 176.992 57.8385C178.603 57.5116 180.03 56.5984 181.003 55.2711L176.531 52.2286L177.637 50.5822L183.884 54.8458L178.847 62.4763L177.182 61.3387L178.606 59.1733C177.632 59.6549 176.53 59.8224 175.448 59.6535C174.326 59.5467 173.243 59.1632 172.293 58.5367C171.377 57.9639 170.607 57.1791 170.049 56.2487C169.49 55.3183 169.159 54.2696 169.084 53.1912C169.054 50.9159 169.718 48.6987 170.986 46.8403C172.254 44.982 174.064 43.5726 176.171 42.8033C177.156 42.474 178.208 42.3844 179.243 42.5419C180.277 42.6993 181.264 43.0994 182.125 43.7098C182.954 44.2176 183.677 44.8839 184.255 45.6704C184.833 46.457 185.253 47.3483 185.491 48.2933C185.822 49.886 185.615 51.5355 184.904 52.977L183.013 51.6971C183.536 50.6133 183.629 49.3622 183.273 48.1966C182.917 47.0309 182.138 46.0375 181.095 45.4171C180.457 44.9867 179.724 44.7251 178.965 44.6568C178.206 44.5885 177.445 44.7157 176.755 45.0265C175.176 45.6504 173.839 46.76 172.93 48.2004C171.94 49.5504 171.396 51.1848 171.371 52.8777Z" fill="white" stroke="white" stroke-width="0.5" stroke-miterlimit="10"/>
<path d="M192.231 54.5825L188.266 58.6553L195.049 65.3797L193.761 66.7112L186.978 59.9869L183.013 64.0597L190.433 71.4238L189.145 72.7553L180.186 63.8661L191.928 51.7772L200.902 60.6575L199.604 61.9733L192.231 54.5825Z" fill="white" stroke="white" stroke-width="0.5" stroke-miterlimit="10"/>
<path d="M211.045 74.1296L209.503 75.2717L206.052 70.5061L193.999 79.3119L192.741 77.5614L204.779 68.7645L201.319 63.9832L202.87 62.8569L211.045 74.1296Z" fill="white" stroke="white" stroke-width="0.5" stroke-miterlimit="10"/>
<path d="M211.553 95.2862C211.18 92.3954 212.113 90.5554 214.321 89.784C214.953 89.5602 215.63 89.4915 216.299 89.5835C216.967 89.6756 217.607 89.9259 218.166 90.3138C219.485 91.1635 220.475 92.4491 220.962 93.946C221.285 94.7242 221.448 95.5583 221.44 96.3967C221.432 97.2351 221.254 98.06 220.917 98.8204C220.635 99.4544 220.225 100.02 219.712 100.482C219.2 100.944 218.597 101.292 217.94 101.504L217.198 99.4351C218.014 99.158 218.685 98.5674 219.067 97.7897C219.298 97.2932 219.423 96.7516 219.434 96.1996C219.445 95.6476 219.341 95.0974 219.13 94.5844C218.826 93.5809 218.185 92.7107 217.319 92.125C216.992 91.9116 216.622 91.7759 216.238 91.7284C215.854 91.6809 215.466 91.7228 215.103 91.851C213.967 92.2343 213.488 93.3293 213.673 95.1112L214.082 98.527C214.422 101.647 213.442 103.619 211.163 104.41C210.501 104.633 209.794 104.691 209.101 104.58C208.407 104.47 207.746 104.193 207.175 103.774C205.772 102.822 204.728 101.416 204.218 99.7936C203.88 98.9329 203.718 98.0144 203.742 97.0946C203.767 96.1747 203.977 95.2728 204.36 94.4441C204.663 93.7716 205.098 93.1696 205.638 92.6737C206.179 92.1778 206.814 91.7981 207.507 91.5568L208.24 93.6102C207.351 93.9334 206.626 94.5925 206.216 95.4501C205.932 96.0065 205.769 96.6195 205.739 97.2486C205.708 97.8777 205.811 98.5085 206.039 99.0991C206.342 100.168 206.987 101.11 207.873 101.776C208.22 102.074 208.636 102.278 209.08 102.367C209.525 102.456 209.982 102.428 210.409 102.285C211.662 101.855 212.182 100.652 211.986 98.709L211.553 95.2862Z" fill="white" stroke="white" stroke-width="0.5" stroke-miterlimit="10"/>
<path d="M226.144 116.958L224.265 117.267L223.206 111.477L208.467 114.026L208.081 111.898L222.815 109.373L221.786 103.671L223.665 103.363L226.144 116.958Z" fill="white" stroke="white" stroke-width="0.5" stroke-miterlimit="10"/>
<path d="M209.749 134.567L209.709 132.323L214.757 130.626L214.653 123.32L209.568 121.638L209.534 119.37L226.537 124.874L226.626 129.02L209.749 134.567ZM216.59 129.988L225.645 126.858L216.425 123.787L216.59 129.988Z" fill="white" stroke="white" stroke-width="0.5" stroke-miterlimit="10"/>
<path d="M207.412 148.76L207.823 146.193L215.695 142.509L216.289 138.87L209.226 137.576L209.565 135.491L226.265 138.547L224.894 146.684C224.795 147.305 224.574 147.899 224.244 148.43C223.915 148.961 223.483 149.419 222.974 149.777C222.466 150.135 221.89 150.386 221.28 150.517C220.671 150.647 220.039 150.653 219.423 150.535C218.154 150.344 216.993 149.681 216.17 148.677C215.759 148.168 215.463 147.576 215.304 146.942C215.144 146.309 215.125 145.65 215.247 145.012L207.412 148.76ZM217.184 144.839C217.079 145.279 217.075 145.74 217.172 146.185C217.269 146.631 217.464 147.051 217.744 147.412C218.244 147.959 218.915 148.314 219.64 148.416C220.365 148.572 221.117 148.484 221.78 148.167C222.128 147.995 222.427 147.74 222.653 147.423C222.879 147.107 223.024 146.738 223.075 146.349L224.08 140.249L218.056 139.152L217.184 144.839Z" fill="white" stroke="white" stroke-width="0.5" stroke-miterlimit="10"/>
<path d="M218.938 167.584L217.112 166.917L218.99 161.405L204.79 156.192L205.479 154.179L219.668 159.335L221.546 153.822L223.371 154.489L218.938 167.584Z" fill="white" stroke="white" stroke-width="0.5" stroke-miterlimit="10"/>
<path d="M214.75 171.912L209.739 169.076L205.252 177.375L203.634 176.462L208.121 168.163L203.095 165.336L198.214 174.45L196.596 173.537L202.592 162.541L217.473 170.928L211.478 181.923L209.87 181.026L214.75 171.912Z" fill="white" stroke="white" stroke-width="0.5" stroke-miterlimit="10"/>
<path d="M193.83 190.873C192.9 190.154 192.117 189.258 191.528 188.236C190.938 187.215 190.553 186.089 190.395 184.924C190.253 184.052 190.292 183.163 190.51 182.314C190.729 181.465 191.122 180.675 191.663 179.994L195.868 174.733L209.108 185.621L204.894 190.866C204.349 191.556 203.661 192.118 202.877 192.512C202.093 192.907 201.232 193.125 200.351 193.153C199.176 193.228 197.994 193.066 196.874 192.674C195.754 192.283 194.72 191.671 193.83 190.873ZM192.647 185.261C193.201 186.759 194.148 188.083 195.385 189.089C196.622 190.095 198.102 190.745 199.665 190.967C200.345 191.056 201.032 190.968 201.661 190.711C202.291 190.454 202.842 190.037 203.262 189.5L206.144 185.905L196.209 177.747C194.248 180.159 193.274 181.394 193.252 181.427C192.839 181.948 192.564 182.568 192.453 183.23C192.343 183.892 192.4 184.574 192.62 185.213L192.647 185.261Z" fill="white" stroke="white" stroke-width="0.5" stroke-miterlimit="10"/>
<path d="M146.395 210.16L145.841 208.381L156.137 205.333L161.165 221.738L159.145 222.338L154.678 207.687L146.395 210.16Z" fill="white" stroke="white" stroke-width="0.5" stroke-miterlimit="10"/>
<path d="M145.04 223.954L144.18 218.154L134.849 219.344L134.542 217.423L143.873 216.233L143.135 210.678L132.914 212.003L132.653 210.16L144.964 208.572L147.392 225.534L135.072 227.107L134.819 225.28L145.04 223.954Z" fill="white" stroke="white" stroke-width="0.5" stroke-miterlimit="10"/>
<path d="M118.409 226.717L118.452 224.761L124.249 225.003L124.583 209.867L126.699 209.968L126.356 225.088L132.168 225.321L132.125 227.277L118.409 226.717Z" fill="white" stroke="white" stroke-width="0.5" stroke-miterlimit="10"/>
<path d="M113.218 225.851L115.51 220.52L117.04 220.748L115.388 226.046L113.218 225.851Z" fill="white" stroke="white" stroke-width="0.5" stroke-miterlimit="10"/>
<path d="M107.846 215.584C110.415 216.899 111.426 218.721 110.879 221.052C110.716 221.692 110.411 222.284 109.987 222.783C109.563 223.283 109.03 223.677 108.43 223.936C107.019 224.549 105.435 224.648 103.943 224.217C103.126 224.047 102.351 223.708 101.664 223.224C100.977 222.739 100.394 222.119 99.9509 221.401C99.5794 220.804 99.3327 220.138 99.2262 219.445C99.1198 218.751 99.1559 218.046 99.3323 217.372L101.463 217.926C101.353 218.344 101.326 218.781 101.384 219.212C101.442 219.643 101.584 220.059 101.802 220.438C102.078 220.918 102.452 221.335 102.899 221.66C103.345 221.985 103.854 222.211 104.391 222.321C105.379 222.639 106.441 222.598 107.39 222.206C107.752 222.055 108.071 221.819 108.323 221.517C108.574 221.215 108.75 220.856 108.835 220.469C109.124 219.295 108.494 218.274 106.91 217.383L103.913 215.756C101.148 214.246 100.07 212.308 100.577 209.979C100.754 209.299 101.089 208.673 101.556 208.156C102.023 207.638 102.608 207.242 103.261 207.002C104.806 206.349 106.538 206.271 108.153 206.78C109.043 206.991 109.884 207.381 110.627 207.926C111.369 208.471 111.998 209.161 112.474 209.953C112.863 210.592 113.123 211.301 113.238 212.039C113.353 212.776 113.32 213.527 113.143 214.247L111.052 213.691C111.263 212.763 111.116 211.783 110.641 210.948C110.339 210.39 109.924 209.901 109.423 209.513C108.923 209.125 108.349 208.848 107.738 208.699C106.692 208.347 105.565 208.349 104.532 208.704C104.097 208.826 103.704 209.061 103.39 209.386C103.076 209.711 102.853 210.114 102.741 210.556C102.421 211.853 103.115 212.984 104.821 213.909L107.846 215.584Z" fill="white" stroke="white" stroke-width="0.5" stroke-miterlimit="10"/>
<path d="M86.2108 202.555C86.1959 201.76 85.9877 200.977 85.6045 200.276C85.2213 199.575 84.6748 198.977 84.0133 198.535C83.4828 198.178 82.8889 197.93 82.2665 197.807C81.644 197.683 81.0055 197.686 80.3884 197.815C78.7942 198.189 77.4068 199.155 76.4995 200.522L81.0652 203.406L79.9857 205.1L73.5646 201.105L78.3241 193.278L80.0352 194.389L78.6782 196.599C79.6305 196.075 80.7267 195.867 81.8129 196.007C83.4513 196.098 85.0149 196.772 86.2255 197.91C87.4361 199.048 88.2155 200.575 88.425 202.221C88.556 204.501 87.988 206.754 86.7984 208.673C85.6087 210.592 83.8554 212.083 81.7777 212.943C80.7984 213.3 79.7459 213.42 78.7043 213.293C77.6627 213.165 76.6608 212.794 75.7787 212.209C74.9322 211.735 74.184 211.099 73.5776 210.336C72.9711 209.573 72.5183 208.699 72.2454 207.764C71.8352 206.18 71.9767 204.512 72.6459 203.041L74.5895 204.27C74.1096 205.37 74.0633 206.621 74.4597 207.771C74.8561 208.92 75.6659 209.883 76.7265 210.465C77.3809 210.874 78.1256 211.109 78.889 211.146C79.6525 211.183 80.4091 211.021 81.0865 210.676C82.5988 209.961 83.8736 208.826 84.7651 207.402C85.6566 205.978 86.1287 204.322 86.1273 202.624L86.2108 202.555Z" fill="white" stroke="white" stroke-width="0.5" stroke-miterlimit="10"/>
<path d="M65.3456 201.694L69.0657 197.447L62.0531 191.002L63.3143 189.623L70.3424 196.059L74.0625 191.813L66.3577 184.739L67.6189 183.36L76.9061 191.892L65.6458 204.458L56.3341 195.92L57.5953 194.541L65.3456 201.694Z" fill="white" stroke="white" stroke-width="0.5" stroke-miterlimit="10"/>
<path d="M45.8212 182.912L47.3267 181.707L50.9691 186.341L62.6543 177.076L63.9799 178.766L52.2674 187.984L55.8853 192.611L54.3797 193.816L45.8212 182.912Z" fill="white" stroke="white" stroke-width="0.5" stroke-miterlimit="10"/>
<path d="M44.4802 161.67C44.9484 164.548 44.0887 166.408 41.9465 167.33C41.323 167.58 40.6468 167.675 39.9743 167.607C39.3018 167.539 38.6522 167.31 38.0795 166.939C36.7397 166.144 35.7105 164.904 35.1713 163.435C34.817 162.67 34.6198 161.842 34.5917 161.003C34.5636 160.164 34.7053 159.331 35.008 158.555C35.2685 157.912 35.658 157.333 36.1522 156.853C36.6464 156.372 37.2348 156.001 37.8809 155.763L38.7092 157.803C37.9078 158.117 37.261 158.731 36.9015 159.518C36.687 160.022 36.5812 160.567 36.5911 161.118C36.6009 161.67 36.7262 162.215 36.9587 162.718C37.29 163.713 37.9622 164.561 38.853 165.108C39.1801 165.309 39.5468 165.434 39.9257 165.474C40.3046 165.513 40.6859 165.465 41.0412 165.334C42.1658 164.895 42.5956 163.786 42.3549 162.016L41.811 158.615C41.3663 155.493 42.2731 153.5 44.5133 152.605C45.1606 152.341 45.8644 152.24 46.5645 152.311C47.2647 152.382 47.9404 152.622 48.5338 153.012C49.982 153.892 51.0874 155.252 51.6573 156.855C52.0195 157.706 52.2108 158.619 52.2197 159.541C52.2286 160.462 52.055 161.372 51.7093 162.218C51.4336 162.904 51.0228 163.524 50.5014 164.042C49.98 164.559 49.3588 164.963 48.6749 165.23L47.8557 163.205C48.733 162.846 49.433 162.156 49.8094 161.28C50.0706 160.712 50.2098 160.092 50.2181 159.462C50.2263 158.832 50.1034 158.205 49.8573 157.621C49.5094 156.569 48.8303 155.656 47.9248 155.022C47.5684 154.737 47.1466 154.549 46.7005 154.475C46.2544 154.402 45.7991 154.446 45.3787 154.603C44.137 155.089 43.651 156.314 43.9335 158.229L44.4802 161.67Z" fill="white" stroke="white" stroke-width="0.5" stroke-miterlimit="10"/>
<path d="M29.0359 140.618L30.8788 140.247L32.1439 146.002L46.796 142.873L47.2674 144.972L32.6154 148.101L33.8806 153.856L32.0377 154.227L29.0359 140.618Z" fill="white" stroke="white" stroke-width="0.5" stroke-miterlimit="10"/>
<path d="M44.8142 122.337L44.919 124.585L39.863 126.518L40.2465 133.81L45.407 135.301L45.5208 137.564L28.3586 132.782L28.1612 128.698L44.8142 122.337ZM38.1438 127.174L29.1872 130.583L38.4603 133.246L38.1438 127.174Z" fill="white" stroke="white" stroke-width="0.5" stroke-miterlimit="10"/>
<path d="M46.6178 108.073L46.296 110.651L38.5728 114.628L38.1072 118.276L45.2249 119.308L44.9591 121.413L28.165 118.979L29.1928 110.746C29.2717 110.123 29.4718 109.523 29.7816 108.982C30.0914 108.441 30.5048 107.969 30.9982 107.592C31.4916 107.216 32.0553 106.943 32.6571 106.788C33.2589 106.634 33.887 106.601 34.5055 106.692C35.7867 106.817 36.9787 107.438 37.8303 108.424C38.2494 108.916 38.5598 109.492 38.7404 110.112C38.9209 110.733 38.9673 111.383 38.8764 112.018L46.6178 108.073ZM36.9999 112.367C37.087 111.921 37.0734 111.46 36.96 111.016C36.8466 110.573 36.6364 110.16 36.3448 109.807C35.8192 109.266 35.127 108.924 34.3868 108.839C33.6561 108.717 32.9101 108.838 32.2616 109.184C31.9168 109.363 31.6235 109.627 31.4089 109.953C31.1942 110.279 31.0651 110.655 31.0333 111.048L30.2713 117.175L36.3121 118.053L36.9999 112.367Z" fill="white" stroke="white" stroke-width="0.5" stroke-miterlimit="10"/>
<path d="M34.3783 89.7239L36.238 90.3082L34.5651 95.8913L48.9181 100.512L48.2874 102.555L33.9343 97.9345L32.2614 103.518L30.4171 102.924L34.3783 89.7239Z" fill="white" stroke="white" stroke-width="0.5" stroke-miterlimit="10"/>
<path d="M38.3943 85.2427L43.5118 87.8707L47.6745 79.402L49.3201 80.2569L45.1575 88.7255L50.275 91.3536L54.8404 82.0857L56.4769 82.9248L50.9838 94.1134L35.7964 86.3018L41.2986 75.129L42.9506 75.9591L38.3943 85.2427Z" fill="white" stroke="white" stroke-width="0.5" stroke-miterlimit="10"/>
<path d="M58.6145 65.4255C59.5705 66.1051 60.3872 66.9667 61.0176 67.9607C61.6479 68.9547 62.0795 70.0614 62.2875 71.2172C62.4827 72.0931 62.4899 72.998 62.3085 73.8704C62.1271 74.7428 61.7614 75.5623 61.2361 76.2735L57.2425 81.6854L43.6054 71.3207L47.6145 65.9C48.1366 65.1935 48.8036 64.61 49.5713 64.1885C50.3389 63.7671 51.1896 63.5172 52.0665 63.4555C54.4059 63.2211 56.7585 63.9289 58.6145 65.4255ZM60.0775 71.024C59.5059 69.5347 58.5044 68.2472 57.2047 67.3309C55.9616 66.3287 54.4476 65.736 52.8721 65.6348C52.1911 65.5798 51.5105 65.6993 50.8933 65.9822C50.2762 66.2651 49.7425 66.7023 49.342 67.2531L46.594 70.9384L56.8087 78.7248C58.6749 76.2202 59.6339 74.9949 59.6493 74.986C60.0557 74.4259 60.3089 73.766 60.384 73.0713C60.4591 72.3767 60.3535 71.6711 60.0775 71.024Z" fill="white" stroke="white" stroke-width="0.5" stroke-miterlimit="10"/>
<path fill-rule="evenodd" clip-rule="evenodd" d="M112.495 82.3848C107.288 82.3848 102.294 84.4188 98.6122 88.0393L80.8457 105.51L80.8457 113.506C80.8457 119.156 83.3136 124.239 87.2473 127.769C83.3136 131.3 80.8457 136.383 80.8457 142.032L80.8457 150.029L98.6122 167.5C102.294 171.12 107.288 173.154 112.495 173.154C118.24 173.154 123.409 170.727 127 166.859C130.59 170.727 135.759 173.154 141.504 173.154C146.711 173.154 151.705 171.12 155.387 167.5L173.153 150.029L173.153 142.032C173.153 136.383 170.686 131.3 166.752 127.769C170.686 124.239 173.153 119.156 173.153 113.506L173.153 105.51L155.387 88.0393C151.705 84.4188 146.711 82.3848 141.504 82.3848C135.759 82.3848 130.59 84.8116 127 88.6796C123.409 84.8116 118.24 82.3848 112.495 82.3848ZM140.289 127.769C140.068 127.571 139.851 127.367 139.638 127.158L127 114.73L114.361 127.158C114.148 127.367 113.931 127.571 113.71 127.769C113.931 127.968 114.148 128.172 114.361 128.381L127 140.809L139.638 128.381C139.851 128.172 140.068 127.968 140.289 127.769ZM132.128 150.029L132.128 153.848C132.128 158.94 136.326 163.069 141.504 163.069C143.991 163.069 146.376 162.097 148.135 160.368L162.897 145.852L162.897 142.032C162.897 136.94 158.699 132.812 153.52 132.812C151.034 132.812 148.649 133.784 146.89 135.513L132.128 150.029ZM121.871 150.029L107.109 135.513C105.35 133.784 102.965 132.812 100.479 132.812C95.3001 132.812 91.1021 136.94 91.1021 142.032L91.1021 145.852L105.865 160.368C107.623 162.097 110.008 163.069 112.495 163.069C117.673 163.069 121.871 158.94 121.871 153.848L121.871 150.029ZM121.871 101.691L121.871 105.51L107.109 120.026C105.35 121.755 102.965 122.727 100.479 122.727C95.3001 122.727 91.1021 118.598 91.1021 113.506L91.1021 109.687L105.865 95.1708C107.623 93.4417 110.008 92.4702 112.495 92.4702C117.673 92.4702 121.871 96.5983 121.871 101.691ZM146.89 120.026L132.128 105.51L132.128 101.691C132.128 96.5983 136.326 92.4702 141.504 92.4702C143.991 92.4702 146.376 93.4417 148.135 95.1708L162.897 109.687L162.897 113.506C162.897 118.598 158.699 122.727 153.52 122.727C151.034 122.727 148.649 121.755 146.89 120.026Z" fill="#B9E800"/>
</svg>
