<svg width="416" height="404" viewBox="0 0 416 404" fill="none" xmlns="http://www.w3.org/2000/svg">
<path fill-rule="evenodd" clip-rule="evenodd" d="M142.632 0C119.165 0 96.6607 9.05301 80.0676 25.1675L0 102.925V138.517C0 163.663 11.1222 186.286 28.8497 202C11.1222 217.714 0 240.337 0 265.482V301.075L80.0676 378.833C96.6607 394.947 119.165 404 142.632 404C168.525 404 191.82 393.199 208 375.983C224.18 393.199 247.475 404 273.368 404C296.835 404 319.339 394.947 335.932 378.833L416 301.075V265.482C416 240.337 404.878 217.714 387.15 202C404.878 186.286 416 163.663 416 138.517V102.925L335.932 25.1675C319.339 9.05301 296.835 0 273.368 0C247.475 0 224.18 10.8013 208 28.0175C191.82 10.8013 168.525 0 142.632 0ZM267.892 202C266.894 201.116 265.916 200.208 264.957 199.277L208 143.963L151.043 199.277C150.084 200.208 149.106 201.116 148.108 202C149.106 202.884 150.084 203.792 151.043 204.723L208 260.037L264.957 204.723C265.916 203.792 266.894 202.884 267.892 202ZM231.111 301.075V318.073C231.111 340.738 250.031 359.112 273.368 359.112C284.575 359.112 295.324 354.788 303.248 347.092L369.778 282.481V265.482C369.778 242.818 350.859 224.444 327.521 224.444C316.314 224.444 305.566 228.768 297.641 236.464L231.111 301.075ZM184.889 301.075L118.359 236.464C110.434 228.768 99.6865 224.444 88.4792 224.444C65.1413 224.444 46.2222 242.818 46.2222 265.482V282.481L112.752 347.092C120.676 354.788 131.425 359.112 142.632 359.112C165.969 359.112 184.889 340.738 184.889 318.073V301.075ZM184.889 85.927V102.925L118.359 167.536C110.434 175.232 99.6865 179.556 88.4792 179.556C65.1413 179.556 46.2222 161.182 46.2222 138.517V121.519L112.752 56.9086C120.676 49.2125 131.425 44.8889 142.632 44.8889C165.969 44.8889 184.889 63.2622 184.889 85.927ZM297.641 167.536L231.111 102.925V85.927C231.111 63.2622 250.031 44.8889 273.368 44.8889C284.575 44.8889 295.324 49.2125 303.248 56.9086L369.778 121.519V138.517C369.778 161.182 350.859 179.556 327.521 179.556C316.314 179.556 305.566 175.232 297.641 167.536Z" fill="#2F2F2F"/>
</svg>
