<svg width="318" height="553" viewBox="0 0 318 553" fill="none" xmlns="http://www.w3.org/2000/svg">
<path d="M0 549C0 551.209 1.79086 553 4 553C6.20914 553 8 551.209 8 549C8 546.791 6.20914 545 4 545C1.79086 545 0 546.791 0 549ZM317.03 7.03033C317.323 6.73744 317.323 6.26256 317.03 5.96967L312.257 1.1967C311.964 0.903806 311.49 0.903806 311.197 1.1967C310.904 1.48959 310.904 1.96447 311.197 2.25736L315.439 6.5L311.197 10.7426C310.904 11.0355 310.904 11.5104 311.197 11.8033C311.49 12.0962 311.964 12.0962 312.257 11.8033L317.03 7.03033ZM16.8303 327.754L17.1794 328.417L16.8303 327.754ZM97.6697 285.246L97.3206 284.583L97.6697 285.246ZM109.75 30.5V264.004H111.25V30.5H109.75ZM97.3206 284.583L16.4812 327.09L17.1794 328.417L98.0187 285.91L97.3206 284.583ZM3.25 348.996V549H4.75V348.996H3.25ZM316.5 5.75H134.5V7.25H316.5V5.75ZM16.4812 327.09C8.34489 331.368 3.25 339.803 3.25 348.996H4.75C4.75 340.36 9.53611 332.436 17.1794 328.417L16.4812 327.09ZM109.75 264.004C109.75 272.64 104.964 280.564 97.3206 284.583L98.0187 285.91C106.155 281.632 111.25 273.197 111.25 264.004H109.75ZM111.25 30.5C111.25 17.6594 121.659 7.25 134.5 7.25V5.75C120.831 5.75 109.75 16.831 109.75 30.5H111.25Z" fill="#E3E3E3"/>
</svg>
