<svg width="180" height="180" viewBox="0 0 180 180" fill="none" xmlns="http://www.w3.org/2000/svg">
<circle cx="90" cy="90" r="90" fill="#AAE500"/>
<circle cx="89.9992" cy="90.0002" r="81.8" stroke="white" stroke-width="2"/>
<g clip-path="url(#clip0_2012_201)">
<path d="M104.775 35.365L107.897 36.316L115.529 24.9647L113.612 24.3795L106.716 34.5846L106.499 22.2946L106.487 22.1849L104.582 21.5996L104.775 35.243V35.365Z" fill="#601FEB"/>
<path d="M111.514 37.7181L113.226 38.4863L118.374 26.6229L118.434 26.4766L116.722 25.7207L111.574 37.584L111.514 37.7181Z" fill="#601FEB"/>
<path d="M114.611 38.95L122.725 43.8636L122.858 43.9367L123.714 42.4858L117.095 38.4745L119.132 35.0362L125.184 38.6939L126.04 37.243L119.988 33.5853L122.026 30.1348L128.657 34.1461L129.513 32.6952L121.387 27.7816L121.266 27.6963L114.684 38.8159L114.611 38.95Z" fill="#601FEB"/>
<path d="M127.235 47.7893L127.331 47.8747L136.325 41.498L130.309 50.6546L130.237 50.7521L132.576 53.0687L143.788 45.8263L142.365 44.4242L132.503 50.7399L138.881 40.9737L136.795 38.901L127.283 45.5825L133.263 35.5724L133.323 35.4749L131.901 34.0605L124.98 45.5581L127.235 47.7893Z" fill="#601FEB"/>
<path d="M154.169 64.4929L152.939 61.9813L142.088 63.2737L149.672 55.3364L148.442 52.8125L136.832 58.6405L137.664 60.3475L146.658 55.8484L139.352 63.5541L139.267 63.6273L140.111 65.322L150.709 64.1028L141.859 68.553L141.715 68.614L142.559 70.3088L154.024 64.5539L154.169 64.4929Z" fill="#601FEB"/>
<path d="M149.068 69.5037C147.337 69.8391 145.793 70.8178 144.74 72.247C144.234 72.9378 143.884 73.7328 143.715 74.5756C143.546 75.4184 143.563 76.2884 143.764 77.124C143.928 77.9876 144.277 78.8043 144.788 79.5163C145.298 80.2284 145.957 80.8185 146.717 81.2451C147.731 81.8408 148.884 82.1522 150.057 82.1473C150.645 82.1467 151.231 82.0813 151.805 81.9522C153.549 81.6118 155.098 80.6082 156.133 79.148C156.639 78.4334 156.986 77.6167 157.15 76.7539C157.314 75.891 157.292 75.0025 157.085 74.149C156.922 73.2978 156.575 72.4936 156.068 71.7938C155.562 71.0941 154.909 70.5161 154.156 70.1011C152.592 69.2688 150.779 69.0558 149.068 69.5037ZM155.361 74.588C155.51 75.1918 155.518 75.8223 155.384 76.4296C155.25 77.0369 154.978 77.6044 154.59 78.0872C153.751 79.0663 152.622 79.7457 151.371 80.0246C150.12 80.3035 148.814 80.1672 147.646 79.6357C147.093 79.3637 146.61 78.9654 146.236 78.4724C145.861 77.9794 145.605 77.4051 145.488 76.7948C145.342 76.2017 145.337 75.5822 145.473 74.9867C145.609 74.3913 145.883 73.8369 146.271 73.3687C147.102 72.3833 148.243 71.7161 149.502 71.4789C149.985 71.37 150.478 71.3128 150.973 71.3082C151.752 71.303 152.522 71.4738 153.228 71.8081C153.775 72.0684 154.253 72.4559 154.624 72.9391C154.995 73.4222 155.248 73.9872 155.361 74.588Z" fill="#601FEB"/>
<path d="M145.368 85.9394L150.721 85.854V88.3779L145.428 92.2551V94.5839L150.733 90.6945C150.76 91.1624 150.88 91.62 151.087 92.0392C151.295 92.4585 151.584 92.8306 151.938 93.133C152.703 93.7879 153.687 94.1198 154.687 94.0596C155.186 94.0585 155.679 93.9491 156.132 93.7387C156.586 93.5284 156.989 93.222 157.315 92.8403C157.647 92.4927 157.907 92.082 158.081 91.6321C158.255 91.1822 158.339 90.7019 158.328 90.2189L158.232 83.8301L145.271 84.0373L145.368 85.9394ZM153.156 91.6455C152.922 91.434 152.737 91.1719 152.616 90.8786C152.495 90.5852 152.44 90.2681 152.457 89.9507L152.397 85.8174H156.652V90.3043C156.666 90.5741 156.614 90.8431 156.5 91.0877C156.387 91.3322 156.215 91.5447 156.001 91.7064C155.582 92.0187 155.075 92.1855 154.555 92.1819C154.043 92.1832 153.548 92.0018 153.156 91.6699V91.6455Z" fill="#601FEB"/>
<path d="M143.571 104.484L143.547 104.643L145.186 104.948L146.609 97.2664L150.503 98.0102L149.237 104.875L149.213 105.021L150.865 105.326L152.155 98.315L156.049 99.0587L154.663 106.582L154.638 106.728L156.278 107.045L158.026 97.6322L158.05 97.4859L145.307 95.084L143.571 104.484Z" fill="#601FEB"/>
<path d="M130.381 127.613L128.078 129.942L134.395 142.098L135.806 140.659L130.152 129.698L140.978 135.282L141.075 135.331L142.485 133.905L130.477 127.662L130.381 127.613Z" fill="#601FEB"/>
<path d="M125.149 132.515L123.678 133.697L131.635 143.854L131.719 143.976L133.19 142.805L125.245 132.637L125.149 132.515Z" fill="#601FEB"/>
<path d="M122.628 134.71L114.406 139.745L115.274 141.196L121.881 137.148L123.931 140.587L117.902 144.281L118.771 145.732L124.799 142.038L126.86 145.464L120.253 149.512L121.121 150.963L129.344 145.927L122.713 134.844L122.628 134.71Z" fill="#601FEB"/>
<path d="M108.885 141.891L110.223 152.913L105.063 143.244L105.003 143.135L101.893 144.134L102.929 157.363L102.941 157.546L104.846 156.936L103.954 145.158L109.428 155.339L109.488 155.449L112.273 154.547L110.923 142.927L116.902 153.059L118.807 152.45L112.02 140.879L108.885 141.891Z" fill="#601FEB"/>
<path d="M92.8276 155.376L89.5001 145.135L87.6314 145.074L83.7132 155.12L83.9905 145.122L84.0025 144.976L82.1218 144.915L81.7601 157.863L81.748 158.022L84.5209 158.095L88.4874 147.817L91.8149 158.217L91.851 158.315L94.636 158.4L94.9977 145.452L95.0097 145.293L93.1169 145.244L92.8276 155.376Z" fill="#601FEB"/>
<path d="M75.5755 142.793C74.7441 142.541 73.8688 142.474 73.0095 142.596C72.1502 142.718 71.327 143.027 70.5963 143.5C69.1379 144.506 68.0795 146.003 67.6093 147.724C67.1391 149.446 67.2876 151.28 68.0284 152.9C68.4153 153.687 68.9658 154.38 69.6421 154.931C70.3183 155.482 71.1045 155.879 71.9466 156.095C72.5106 156.262 73.095 156.348 73.6827 156.351C74.8119 156.351 75.9156 156.012 76.8534 155.376C78.2878 154.349 79.327 152.852 79.795 151.138C80.263 149.425 80.131 147.601 79.4213 145.975C79.0535 145.19 78.5176 144.497 77.8525 143.946C77.1874 143.396 76.4096 143.002 75.5755 142.793ZM77.8661 150.596C77.5679 151.855 76.8533 152.974 75.8407 153.766C75.3587 154.135 74.7969 154.383 74.2015 154.489C73.6061 154.595 72.9944 154.556 72.4168 154.376C71.8195 154.225 71.2649 153.936 70.7964 153.532C70.3279 153.128 69.9582 152.62 69.7162 152.047C69.2658 150.839 69.2064 149.517 69.5466 148.272C69.8867 147.028 70.6089 145.924 71.609 145.122C72.2799 144.623 73.091 144.353 73.9238 144.353C74.3319 144.349 74.7383 144.406 75.1294 144.524C75.7173 144.669 76.2625 144.953 76.7197 145.354C77.1769 145.755 77.5327 146.261 77.7576 146.829C78.2178 148.022 78.2561 149.34 77.8661 150.559V150.596Z" fill="#601FEB"/>
<path d="M68.7741 141.013L67.1103 140.135L64.6268 144.927L62.4085 143.708L61.5887 137.16L59.5512 136.075L60.371 142.635C59.958 142.445 59.5116 142.341 59.0582 142.328C58.6047 142.316 58.1534 142.395 57.7307 142.562C56.7978 142.935 56.0454 143.661 55.633 144.586C55.404 145.02 55.2623 145.496 55.216 145.986C55.1696 146.476 55.2197 146.97 55.3631 147.44C55.5065 147.911 55.7406 148.348 56.0518 148.726C56.3629 149.105 56.745 149.417 57.1761 149.645L62.7702 152.62L68.7258 141.147L68.7741 141.013ZM57.9236 148.146C57.6856 148.033 57.4787 147.863 57.3211 147.65C57.1634 147.438 57.0598 147.189 57.0194 146.927C56.9482 146.406 57.0455 145.875 57.2967 145.415C57.5266 144.934 57.9205 144.553 58.4058 144.342C58.6173 144.259 58.8423 144.218 59.0689 144.22C59.4902 144.226 59.9038 144.335 60.2746 144.537L63.8914 146.463L61.9142 150.267L57.9236 148.146Z" fill="#601FEB"/>
<path d="M51.7286 129.698L50.6797 131.015L56.7078 135.892L54.2242 139.026L48.7267 134.575L47.6778 135.892L53.1874 140.354L50.7039 143.488L44.6758 138.599L43.627 139.928L51.1379 146L59.2275 135.77L51.7286 129.698Z" fill="#601FEB"/>
<path d="M23.2871 103.936L23.8779 105.862L36.1027 105.972L26.1444 113.007L26.0479 113.068L26.6387 115.006L37.8147 107.154L36.8622 104.009L23.2871 103.936Z" fill="#601FEB"/>
<path d="M35.9949 100.204L35.6694 98.3389L23.0587 100.643L22.9141 100.668L23.2396 102.533L35.8502 100.241L35.9949 100.204Z" fill="#601FEB"/>
<path d="M34.7525 87.1953L33.0888 87.2807L33.4987 95.0839L29.5323 95.3033L29.1585 88.1707L27.4828 88.2683L27.8685 95.3887L23.9021 95.6082L23.4922 87.8049L21.8164 87.9025L22.3348 97.6077L35.271 96.9006L34.7525 87.1953Z" fill="#601FEB"/>
<path d="M34.8854 84.525L35.4761 81.2574L25.2044 77.2826L36.0789 77.1973H36.1995L36.7902 73.9541L24.5775 68.6016L24.2158 70.5889L34.9215 75.3196L23.3477 75.4416L22.8293 78.3434L33.6195 82.5864L22.0698 83.1716L21.9492 83.1838L21.5996 85.159L34.7648 84.525H34.8854Z" fill="#601FEB"/>
<path d="M44.4581 57.5919L45.3864 55.9459L34.1381 49.4473L32.7637 51.8736L39.8647 60.262L29.1228 58.3112L27.7363 60.7619L38.9967 67.2605L39.9371 65.6023L31.2205 60.5668L41.7214 62.4201L42.6497 60.7741L35.7415 52.5564L44.4581 57.5919Z" fill="#601FEB"/>
<path d="M45.7366 53.0198H45.9898C46.8064 53.0211 47.614 52.848 48.3599 52.5118C49.1057 52.1757 49.773 51.684 50.3179 51.0689C50.9287 50.4449 51.3989 49.6947 51.6965 48.8698C51.994 48.0449 52.1119 47.1647 52.0419 46.2895C51.8552 44.5134 51.0487 42.8628 49.7672 41.6338C48.4857 40.4049 46.8131 39.678 45.0494 39.5836C44.1818 39.5582 43.319 39.7227 42.5199 40.0657C41.7209 40.4087 41.0046 40.9222 40.4199 41.571C39.81 42.1837 39.3431 42.9263 39.0532 43.7447C38.7633 44.5632 38.6577 45.4367 38.7441 46.3017C38.9693 48.0622 39.7877 49.6905 41.0614 50.912C42.3351 52.1335 43.9863 52.8736 45.7366 53.0076V53.0198ZM44.6757 41.4856H45.0012C46.2942 41.609 47.5005 42.1974 48.401 43.1438C49.3614 44.0124 49.9888 45.1951 50.1733 46.4846C50.2572 47.0987 50.1997 47.7242 50.0052 48.3121C49.8107 48.9001 49.4845 49.4347 49.0521 49.8741C48.6408 50.3196 48.1324 50.6618 47.5672 50.8735C47.0021 51.0852 46.3959 51.1605 45.7969 51.0933C44.5374 50.9014 43.3667 50.3223 42.4436 49.4346C41.5206 48.5469 40.8898 47.3935 40.6369 46.131C40.5412 45.528 40.5885 44.9106 40.7751 44.3298C40.9616 43.7489 41.2821 43.2212 41.7099 42.7902C42.0881 42.3787 42.5475 42.0521 43.0584 41.8316C43.5693 41.611 44.1203 41.5015 44.6757 41.51V41.4856Z" fill="#601FEB"/>
<path d="M55.0794 45.8631L56.6226 44.8023L53.6086 40.3277L55.6701 38.9011L61.6982 41.2055H61.7705L63.6754 39.9009L57.5509 37.56C57.911 37.2787 58.2126 36.9281 58.4381 36.5284C58.6637 36.1287 58.8087 35.6879 58.865 35.2312C58.9747 34.2269 58.708 33.2175 58.1175 32.4025C57.843 31.9879 57.4874 31.6344 57.0727 31.364C56.6581 31.0935 56.193 30.9117 55.7063 30.8297C55.2364 30.7403 54.7537 30.746 54.286 30.8464C53.8183 30.9469 53.375 31.1401 52.9816 31.4149L47.7734 35.0727L55.0071 45.7655L55.0794 45.8631ZM57.0566 35.0727C57.0101 35.3883 56.8938 35.6893 56.7164 35.9531C56.539 36.217 56.305 36.437 56.0318 36.5968L52.6561 38.9255L50.2449 35.3775L53.8617 32.8415C54.0776 32.6814 54.3291 32.5776 54.5941 32.5393C54.859 32.501 55.1293 32.5294 55.3808 32.622C55.874 32.7983 56.2972 33.1321 56.5864 33.573C56.9132 34.0012 57.0797 34.5324 57.0566 35.0727Z" fill="#601FEB"/>
<path d="M64.1339 39.7911L72.8263 35.9871L72.959 35.9383L72.2959 34.3777L65.2069 37.4746L63.6396 33.7924L69.9691 31.0247L70.1017 30.9638L69.4386 29.4031L62.9645 32.2318L61.3972 28.5496L68.4862 25.4527L67.8231 23.9043L58.998 27.7571L64.0736 39.6448L64.1339 39.7911Z" fill="#601FEB"/>
<path d="M74.5996 104.6L104.6 74.5996M104.6 74.5996V97.0996M104.6 74.5996H82.0996" stroke="white" stroke-width="6" stroke-linecap="square"/>
<ellipse cx="87.9073" cy="27.6963" rx="2.41121" ry="2.4385" fill="white"/>
<ellipse cx="38.4776" cy="124.017" rx="2.41121" ry="2.4385" fill="white"/>
<ellipse cx="144.571" cy="120.359" rx="2.41121" ry="2.4385" fill="white"/>
</g>
<defs>
<clipPath id="clip0_2012_201">
<rect width="136.8" height="136.8" fill="white" transform="translate(21.5996 21.5996)"/>
</clipPath>
</defs>
</svg>
