<svg width="489" height="489" viewBox="0 0 489 489" fill="none" xmlns="http://www.w3.org/2000/svg">
<path fill-rule="evenodd" clip-rule="evenodd" d="M167.661 6.15527C140.076 6.15527 113.623 16.8457 94.118 35.8749L0 127.697V169.727C0 199.421 13.0739 226.136 33.9123 244.692C13.0739 263.247 0 289.962 0 319.657V361.687L94.118 453.509C113.623 472.538 140.076 483.228 167.661 483.228C198.098 483.228 225.48 470.474 244.5 450.143C263.52 470.474 290.902 483.228 321.339 483.228C348.924 483.228 375.377 472.538 394.882 453.509L489 361.687V319.657C489 289.962 475.927 263.247 455.088 244.692C475.927 226.136 489 199.421 489 169.727V127.697L394.882 35.8749C375.377 16.8457 348.924 6.15527 321.339 6.15527C290.902 6.15527 263.52 18.9103 244.5 39.2404C225.48 18.9103 198.098 6.15527 167.661 6.15527ZM314.901 244.692C313.729 243.648 312.579 242.576 311.451 241.476L244.5 176.158L177.549 241.476C176.421 242.576 175.271 243.648 174.099 244.692C175.271 245.735 176.421 246.808 177.549 247.907L244.5 313.226L311.451 247.907C312.579 246.808 313.729 245.735 314.901 244.692ZM271.666 361.687V381.76C271.666 408.523 293.906 430.221 321.339 430.221C334.513 430.221 347.147 425.115 356.463 416.027L434.667 339.729V319.657C434.667 292.893 412.427 271.195 384.995 271.195C371.821 271.195 359.186 276.301 349.871 285.39L271.666 361.687ZM217.334 361.687L139.129 285.39C129.814 276.301 117.18 271.195 104.006 271.195C76.5724 271.195 54.3333 292.893 54.3333 319.657V339.729L132.537 416.027C141.853 425.115 154.487 430.221 167.661 430.221C195.094 430.221 217.334 408.523 217.334 381.76V361.687ZM217.334 107.624V127.697L139.129 203.994C129.814 213.082 117.18 218.188 104.006 218.188C76.5724 218.188 54.3333 196.491 54.3333 169.727V149.654L132.537 73.3572C141.853 64.2691 154.487 59.1634 167.661 59.1634C195.094 59.1634 217.334 80.86 217.334 107.624ZM349.871 203.994L271.666 127.697V107.624C271.666 80.86 293.906 59.1634 321.339 59.1634C334.513 59.1634 347.147 64.2691 356.463 73.3572L434.667 149.654V169.727C434.667 196.491 412.427 218.188 384.995 218.188C371.821 218.188 359.186 213.082 349.871 203.994Z" fill="#B9E800"/>
</svg>
