<svg width="722" height="705" viewBox="0 0 722 705" fill="none" xmlns="http://www.w3.org/2000/svg">
<path fill-rule="evenodd" clip-rule="evenodd" d="M247.549 0C206.82 0 167.762 15.7843 138.964 43.8805L0 179.454V241.511C0 285.354 19.3034 324.798 50.0709 352.195C19.3034 379.592 0 419.036 0 462.879V524.936L138.964 660.51C167.762 688.606 206.82 704.39 247.549 704.39C292.488 704.39 332.918 685.558 361 655.541C389.082 685.558 429.512 704.39 474.451 704.39C515.179 704.39 554.238 688.606 583.037 660.51L722 524.936V462.879C722 419.036 702.697 379.592 671.929 352.195C702.697 324.798 722 285.354 722 241.511V179.454L583.037 43.8805C554.238 15.7843 515.179 0 474.451 0C429.512 0 389.082 18.8325 361 48.8496C332.918 18.8325 292.488 0 247.549 0ZM464.946 352.195C463.215 350.654 461.517 349.071 459.853 347.447L361 251.006L262.147 347.447C260.483 349.071 258.785 350.654 257.054 352.195C258.785 353.736 260.483 355.319 262.147 356.942L361 453.384L459.853 356.942C461.517 355.319 463.215 353.736 464.946 352.195ZM401.111 524.936V554.573C401.111 594.09 433.947 626.125 474.451 626.125C493.902 626.125 512.557 618.586 526.311 605.168L641.779 492.517V462.879C641.779 423.363 608.942 391.327 568.438 391.327C548.987 391.327 530.332 398.866 516.578 412.285L401.111 524.936ZM320.889 524.936L205.422 412.285C191.668 398.866 173.014 391.327 153.563 391.327C113.058 391.327 80.2221 423.363 80.2221 462.879V492.517L195.689 605.168C209.443 618.586 228.098 626.125 247.549 626.125C288.053 626.125 320.889 594.09 320.889 554.573V524.936ZM320.889 149.817V179.454L205.422 292.105C191.668 305.524 173.014 313.062 153.563 313.062C113.058 313.062 80.2221 281.027 80.2221 241.511V211.873L195.689 99.2225C209.443 85.804 228.098 78.2656 247.549 78.2656C288.053 78.2656 320.889 110.3 320.889 149.817ZM516.578 292.105L401.111 179.454V149.817C401.111 110.3 433.947 78.2656 474.451 78.2656C493.902 78.2656 512.557 85.804 526.311 99.2225L641.779 211.873V241.511C641.779 281.027 608.942 313.062 568.438 313.062C548.987 313.062 530.332 305.524 516.578 292.105Z" fill="url(#paint0_linear_2016_416)" fill-opacity="0.8"/>
<defs>
<linearGradient id="paint0_linear_2016_416" x1="361" y1="-418" x2="361" y2="873.5" gradientUnits="userSpaceOnUse">
<stop stop-color="#EFEFEF" stop-opacity="0.56"/>
<stop offset="0.670755" stop-color="#EFEFEF" stop-opacity="0.6"/>
<stop offset="1" stop-color="#EFEFEF" stop-opacity="0"/>
</linearGradient>
</defs>
</svg>
