<svg width="132" height="40" viewBox="0 0 132 40" fill="none" xmlns="http://www.w3.org/2000/svg">
<g clip-path="url(#clip0_2012_120)">
<path d="M19.8166 0.065918C8.90585 0.065918 0.0605469 8.99282 0.0605469 20.0045C0.0605469 31.0166 8.90585 39.9428 19.8166 39.9428C30.7284 39.9428 39.5728 31.0166 39.5728 20.0045C39.5728 8.99354 30.7284 0.0668703 19.8163 0.0668703L19.8166 0.065918V0.065918ZM28.8765 28.8231C28.5227 29.4088 27.763 29.5945 27.1827 29.235C22.5442 26.3754 16.7049 25.7278 9.82803 27.3135C9.16535 27.4659 8.50479 27.0469 8.35381 26.3778C8.20212 25.7088 8.61567 25.0421 9.28 24.8897C16.8056 23.1545 23.2609 23.9016 28.4684 27.1135C29.0488 27.4731 29.2328 28.2373 28.8765 28.8231V28.8231ZM31.2946 23.394C30.8488 24.1254 29.9004 24.3564 29.1761 23.9064C23.8658 20.6121 15.7709 19.6581 9.48973 21.5823C8.67512 21.8307 7.81475 21.3673 7.56751 20.5466C7.32217 19.7245 7.78149 18.8578 8.59468 18.6078C15.7695 16.4107 24.6891 17.475 30.7874 21.2571C31.5117 21.7071 31.7405 22.6643 31.2946 23.3943V23.394ZM31.5022 17.7407C25.135 13.9238 14.6298 13.5728 8.55056 15.435C7.57436 15.7338 6.542 15.1776 6.24617 14.1923C5.95033 13.2066 6.50095 12.1654 7.47787 11.8659C14.4564 9.72782 26.0574 10.1409 33.3881 14.5331C34.2681 15.059 34.5559 16.2035 34.0345 17.0885C33.5155 17.9747 32.3784 18.2669 31.5032 17.7407H31.5022ZM53.8101 18.4721C50.3988 17.6512 49.7925 17.075 49.7925 15.8643C49.7925 14.7204 50.8588 13.9507 52.4465 13.9507C53.9847 13.9507 55.5087 14.5352 57.1082 15.7385C57.1554 15.775 57.2167 15.7895 57.2757 15.78C57.337 15.7709 57.3889 15.7378 57.4243 15.6881L59.0898 13.3185C59.1582 13.2209 59.1394 13.0864 59.0474 13.0119C57.1436 11.4707 55.0015 10.7214 52.4961 10.7214C48.8135 10.7214 46.2397 12.9521 46.2397 16.1438C46.2397 19.5664 48.4596 20.7783 52.2956 21.7138C55.5582 22.4726 56.1103 23.1083 56.1103 24.2445C56.1103 25.504 54.9968 26.2873 53.2038 26.2873C51.2127 26.2873 49.5873 25.6088 47.7708 24.0231C47.7259 23.9826 47.6646 23.9659 47.608 23.9683C47.5466 23.9731 47.4924 24.0016 47.4546 24.0469L45.5862 26.2897C45.5084 26.385 45.5178 26.5231 45.6074 26.604C47.7212 28.5088 50.321 29.5135 53.1283 29.5135C57.0964 29.5135 59.6607 27.3254 59.6607 23.9373C59.6678 21.0785 57.9716 19.4952 53.8172 18.4752L53.8101 18.4721V18.4721ZM68.6396 15.0769C66.9198 15.0769 65.509 15.7607 64.3436 17.1619V15.5847C64.3436 15.4602 64.2445 15.3588 64.1218 15.3588H61.0668C60.9441 15.3588 60.845 15.4602 60.845 15.5847V33.1088C60.845 33.2326 60.9441 33.335 61.0668 33.335H64.1218C64.2445 33.335 64.3436 33.2326 64.3436 33.1088V27.5778C65.509 28.8945 66.9198 29.5397 68.6396 29.5397C71.8362 29.5397 75.0729 27.0564 75.0729 22.309C75.0776 17.5607 71.8409 15.0766 68.6419 15.0766L68.6396 15.0769ZM71.5201 22.309C71.5201 24.7254 70.0456 26.4135 67.9318 26.4135C65.844 26.4135 64.2681 24.6493 64.2681 22.309C64.2681 19.9685 65.844 18.2047 67.9318 18.2047C70.0102 18.2045 71.5201 19.9302 71.5201 22.3088V22.309ZM83.3652 15.0769C79.2485 15.0769 76.0236 18.2759 76.0236 22.3607C76.0236 26.4016 79.2273 29.5659 83.3157 29.5659C87.4465 29.5659 90.6809 26.3778 90.6809 22.309C90.6809 18.254 87.4677 15.0773 83.3652 15.0773V15.0769V15.0769ZM83.3652 26.4373C81.1759 26.4373 79.5246 24.6612 79.5246 22.3078C79.5246 19.9438 81.1193 18.2283 83.3157 18.2283C85.5191 18.2283 87.1799 20.0038 87.1799 22.3595C87.1799 24.7231 85.5757 26.4373 83.3652 26.4373V26.4373ZM99.471 15.3588H96.1092V11.8907C96.1092 11.7664 96.0101 11.665 95.8874 11.665H92.8324C92.7097 11.665 92.6083 11.7664 92.6083 11.8907V15.3588H91.1409C91.0182 15.3588 90.9191 15.4602 90.9191 15.5847V18.234C90.9191 18.3583 91.0182 18.46 91.1409 18.46H92.6083V25.3159C92.6083 28.085 93.9742 29.4897 96.6707 29.4897C97.7653 29.4897 98.6736 29.2612 99.5299 28.7707C99.6007 28.7326 99.6432 28.6564 99.6432 28.5754V26.0516C99.6432 25.9754 99.6031 25.9016 99.537 25.8612C99.471 25.8183 99.3884 25.8159 99.32 25.8516C98.7325 26.1493 98.164 26.2873 97.527 26.2873C96.548 26.2873 96.1092 25.8373 96.1092 24.8326V18.4612H99.471C99.5936 18.4612 99.6927 18.3597 99.6927 18.2352V15.5862C99.6974 15.4616 99.5983 15.3602 99.4733 15.3602L99.471 15.3588V15.3588ZM111.182 15.3723V14.9464C111.182 13.6933 111.658 13.1345 112.725 13.1345C113.361 13.1345 113.873 13.2621 114.447 13.455C114.517 13.4773 114.591 13.4662 114.647 13.4235C114.706 13.3809 114.739 13.3126 114.739 13.2402V10.6426C114.739 10.5433 114.678 10.4554 114.581 10.4262C113.977 10.2445 113.203 10.0581 112.043 10.0581C109.224 10.0581 107.73 11.6614 107.73 14.6931V15.3454H106.263C106.14 15.3454 106.039 15.4469 106.039 15.5712V18.234C106.039 18.3583 106.14 18.46 106.263 18.46H107.73V29.0326C107.73 29.1588 107.832 29.2588 107.954 29.2588H111.007C111.132 29.2588 111.231 29.1588 111.231 29.0326V18.4607H114.083L118.452 29.0326C117.957 30.1421 117.469 30.3635 116.803 30.3635C116.266 30.3635 115.697 30.2016 115.119 29.8802C115.065 29.8516 114.999 29.8469 114.942 29.8635C114.883 29.885 114.834 29.9278 114.81 29.985L113.774 32.2778C113.725 32.3874 113.767 32.5135 113.871 32.5707C114.952 33.1612 115.926 33.4135 117.131 33.4135C119.387 33.4135 120.635 32.3516 121.732 29.4993L127.03 15.6809C127.059 15.6114 127.049 15.5328 127.007 15.4712C126.967 15.41 126.898 15.3731 126.825 15.3731H123.645C123.548 15.3731 123.463 15.4343 123.433 15.5245L120.175 24.9135L116.608 15.5183C116.575 15.4309 116.492 15.3731 116.4 15.3731H111.182V15.3723V15.3723ZM104.392 15.3588H101.337C101.214 15.3588 101.113 15.4602 101.113 15.5847V29.0326C101.113 29.1588 101.214 29.2588 101.337 29.2588H104.392C104.515 29.2588 104.616 29.1588 104.616 29.0326V15.5857C104.616 15.4612 104.517 15.3597 104.392 15.3597V15.3588ZM102.882 9.2352C101.672 9.2352 100.691 10.2238 100.691 11.445C100.691 12.6669 101.672 13.6566 102.882 13.6566C104.092 13.6566 105.072 12.6669 105.072 11.445C105.072 10.224 104.09 9.2352 102.882 9.2352ZM129.639 19.6828C128.432 19.6828 127.49 18.7031 127.49 17.5133C127.49 16.3235 128.443 15.3326 129.651 15.3326C130.859 15.3326 131.8 16.3121 131.8 17.5009C131.8 18.6907 130.847 19.6828 129.639 19.6828ZM129.651 15.5483C128.55 15.5483 127.717 16.4316 127.717 17.5133C127.717 18.5945 128.545 19.4659 129.639 19.4659C130.741 19.4659 131.574 18.5833 131.574 17.5009C131.574 16.4197 130.746 15.5483 129.651 15.5483V15.5483ZM130.128 17.724L130.736 18.5831H130.222L129.675 17.795H129.205V18.5831H128.776V16.3059H129.781C130.307 16.3059 130.651 16.5766 130.651 17.0323C130.654 17.4057 130.439 17.6338 130.13 17.724H130.128ZM129.764 16.6966H129.205V17.4169H129.764C130.043 17.4169 130.21 17.279 130.21 17.0564C130.21 16.8221 130.043 16.6966 129.764 16.6966V16.6966Z" fill="#999999"/>
</g>
<defs>
<clipPath id="clip0_2012_120">
<rect width="131.875" height="40" fill="white"/>
</clipPath>
</defs>
</svg>
